<?xml version="1.0" encoding="utf-8"?>
<!-- Generator: Adobe Illustrator 23.1.0, SVG Export Plug-In . SVG Version: 6.00 Build 0)  -->
<svg version="1.1" id="Layer_1" xmlns="http://www.w3.org/2000/svg" xmlns:xlink="http://www.w3.org/1999/xlink" x="0px" y="0px"
	 viewBox="0 0 60 60" style="enable-background:new 0 0 60 60;" xml:space="preserve">
<style type="text/css">
	.st0{fill:#D6CDB6;}
	.st1{fill:#F1E5CE;}
	.st2{fill:#FFFFFF;}
	.st3{fill:#3F2C26;}
	.st4{opacity:0.3;}
	.st5{fill:#CFC9BE;}
</style>
<g>
	<g>
		<g>
			<g>
				<path class="st0" d="M49.63,30.69c0,10.14-8.22,18.36-18.36,18.36c-10.14,0-18.36-8.22-18.36-18.36
					c0-10.14,8.22-18.36,18.36-18.36C41.41,12.33,49.63,20.55,49.63,30.69z"/>
			</g>
		</g>
	</g>
	<g>
		<g>
			<g>
				<path class="st1" d="M31.27,48.03c-9.56,0-17.34-7.78-17.34-17.34c0-9.56,7.78-17.34,17.34-17.34c9.56,0,17.34,7.78,17.34,17.34
					C48.61,40.25,40.83,48.03,31.27,48.03z"/>
			</g>
		</g>
	</g>
	<g>
		<g>
			<g>
				<g>
					<path class="st1" d="M28.15,46.67c-0.19-0.34-0.54-0.54-0.93-0.58c-1.64-1.52-4.4-6.26-5.19-8.95
						c0.69-0.84,0.79-2.18,0.13-3.34c-0.82-1.44-2.47-2.05-3.69-1.35c-1.22,0.69-1.54,2.42-0.73,3.86c0.66,1.16,1.86,1.78,2.94,1.61
						c1.91,2.06,4.55,6.85,5.02,9.03c-0.16,0.35-0.17,0.76,0.02,1.1c0.34,0.6,1.16,0.78,1.82,0.4
						C28.23,48.06,28.49,47.27,28.15,46.67z"/>
				</g>
			</g>
		</g>
	</g>
	<g>
		<g>
			<g>
				<g>
					<path class="st2" d="M27.13,45.65c-0.19-0.34-0.54-0.54-0.93-0.58c-1.64-1.52-4.4-6.26-5.19-8.95
						c0.69-0.84,0.79-2.18,0.13-3.34c-0.82-1.44-2.47-2.05-3.69-1.35c-1.22,0.69-1.54,2.42-0.73,3.86c0.66,1.16,1.86,1.78,2.94,1.61
						c1.91,2.06,4.55,6.85,5.02,9.03c-0.16,0.35-0.17,0.76,0.02,1.1c0.34,0.6,1.16,0.78,1.82,0.4
						C27.21,47.04,27.47,46.25,27.13,45.65z"/>
				</g>
			</g>
		</g>
	</g>
	<g>
		<g>
			<g>
				<path class="st2" d="M31.27,40.68c-5.51,0-9.99-4.48-9.99-9.99c0-5.51,4.48-9.99,9.99-9.99c5.51,0,9.99,4.48,9.99,9.99
					C41.26,36.2,36.78,40.68,31.27,40.68z"/>
			</g>
		</g>
	</g>
	<g>
		<g>
			<g>
				<path class="st1" d="M31.78,41.7c-5.51,0-9.99-4.48-9.99-9.99c0-5.51,4.48-9.99,9.99-9.99c5.51,0,9.99,4.48,9.99,9.99
					C41.77,37.22,37.29,41.7,31.78,41.7z"/>
			</g>
		</g>
	</g>
	<g>
		<g>
			<g>
				<path class="st2" d="M31.27,40.68c-5.51,0-9.99-4.48-9.99-9.99c0-5.51,4.48-9.99,9.99-9.99c5.51,0,9.99,4.48,9.99,9.99
					C41.26,36.2,36.78,40.68,31.27,40.68z"/>
			</g>
		</g>
	</g>
	<g>
		<g>
			<g>
				<path class="st3" d="M31.27,39.66c-4.95,0-8.98-4.03-8.98-8.98c0-4.95,4.03-8.98,8.98-8.98c4.95,0,8.98,4.03,8.98,8.98
					C40.24,35.64,36.22,39.66,31.27,39.66z"/>
			</g>
		</g>
	</g>
	<g>
		<g>
			<g>
				<g>
					<path class="st2" d="M43.8,32.09h-2.54c-0.56,0-1.02-0.46-1.02-1.02c0-0.56,0.46-1.02,1.02-1.02h2.54
						c0.56,0,1.02,0.46,1.02,1.02C44.81,31.63,44.36,32.09,43.8,32.09z"/>
				</g>
			</g>
		</g>
	</g>
	<g>
		<g>
			<g>
				<g>
					<g>
						<g>
							<path class="st1" d="M30.82,25.88c-0.12,0.03-0.25-0.04-0.28-0.16c-0.03-0.12,0.04-0.25,0.16-0.28
								c0.12-0.03,0.25,0.04,0.28,0.16C31.02,25.72,30.94,25.85,30.82,25.88z M30.73,25.52c-0.08,0.02-0.13,0.1-0.1,0.18
								c0.02,0.08,0.1,0.13,0.18,0.11c0.08-0.02,0.13-0.1,0.1-0.18C30.88,25.54,30.8,25.5,30.73,25.52z"/>
						</g>
					</g>
				</g>
			</g>
		</g>
		<g>
			<g>
				<g>
					<g>
						<g>
							<g>
								<path class="st1" d="M30.55,31.6c-0.12,0.03-0.25-0.04-0.28-0.16c-0.03-0.12,0.04-0.25,0.16-0.28
									c0.12-0.03,0.25,0.04,0.28,0.16C30.75,31.45,30.67,31.57,30.55,31.6z M30.46,31.24c-0.08,0.02-0.13,0.1-0.11,0.18
									c0.02,0.08,0.1,0.13,0.18,0.11c0.08-0.02,0.13-0.1,0.1-0.18C30.61,31.27,30.53,31.22,30.46,31.24z"/>
							</g>
						</g>
					</g>
				</g>
			</g>
		</g>
		<g>
			<g>
				<g>
					<g>
						<g>
							<g>
								<path class="st1" d="M29.6,31.39c-0.12,0.03-0.25-0.04-0.28-0.16c-0.03-0.12,0.04-0.25,0.16-0.28
									c0.12-0.03,0.25,0.04,0.28,0.16C29.8,31.23,29.72,31.36,29.6,31.39z M29.51,31.02c-0.08,0.02-0.13,0.1-0.1,0.18
									c0.02,0.08,0.1,0.13,0.18,0.1c0.08-0.02,0.12-0.1,0.1-0.18C29.67,31.05,29.59,31,29.51,31.02z"/>
							</g>
						</g>
					</g>
				</g>
			</g>
		</g>
		<g>
			<g>
				<g>
					<g>
						<g>
							<g>
								<path class="st1" d="M29.11,32.69c-0.12,0.03-0.25-0.04-0.28-0.16c-0.03-0.12,0.04-0.25,0.16-0.28
									c0.12-0.03,0.25,0.04,0.28,0.16C29.3,32.54,29.23,32.66,29.11,32.69z M29.01,32.33c-0.08,0.02-0.13,0.1-0.1,0.18
									c0.02,0.08,0.1,0.13,0.18,0.11c0.08-0.02,0.13-0.1,0.1-0.18C29.17,32.36,29.09,32.31,29.01,32.33z"/>
							</g>
						</g>
					</g>
				</g>
			</g>
		</g>
		<g>
			<g>
				<g>
					<g>
						<path class="st1" d="M25.61,30.9c-0.08,0-0.15-0.05-0.17-0.13c-0.01-0.05-0.01-0.09,0.02-0.13c0.02-0.04,0.06-0.07,0.11-0.08
							c0.09-0.03,0.19,0.03,0.22,0.13c0.01,0.05,0.01,0.09-0.02,0.13c-0.02,0.04-0.06,0.07-0.11,0.08
							C25.64,30.9,25.63,30.9,25.61,30.9z M25.61,30.61c-0.01,0-0.02,0-0.03,0c-0.03,0.01-0.05,0.03-0.07,0.05
							c-0.02,0.03-0.02,0.06-0.01,0.09c0.02,0.06,0.08,0.1,0.14,0.08c0.03-0.01,0.05-0.03,0.07-0.05c0.02-0.03,0.02-0.06,0.01-0.09
							C25.71,30.64,25.66,30.61,25.61,30.61z"/>
					</g>
				</g>
			</g>
		</g>
		<g>
			<g>
				<g>
					<g>
						<path class="st1" d="M30.86,22.21c-0.08,0-0.15-0.05-0.17-0.13c-0.01-0.05-0.01-0.09,0.02-0.13c0.02-0.04,0.06-0.07,0.11-0.08
							c0.09-0.02,0.19,0.03,0.22,0.13c0.01,0.05,0.01,0.09-0.02,0.13c-0.02,0.04-0.06,0.07-0.11,0.08
							C30.89,22.21,30.87,22.21,30.86,22.21z"/>
						<path class="st1" d="M30.86,21.92c-0.01,0-0.02,0-0.03,0c-0.03,0.01-0.05,0.03-0.07,0.05c-0.02,0.03-0.02,0.06-0.01,0.09
							c0.02,0.06,0.08,0.1,0.14,0.08c0.03-0.01,0.05-0.03,0.07-0.05c0.02-0.03,0.02-0.06,0.01-0.09
							C30.95,21.95,30.91,21.92,30.86,21.92z"/>
					</g>
				</g>
			</g>
		</g>
		<g>
			<g>
				<g>
					<g>
						<path class="st1" d="M26.54,26.34c-0.08,0-0.15-0.05-0.17-0.13c-0.01-0.05-0.01-0.09,0.02-0.13c0.02-0.04,0.06-0.07,0.11-0.08
							c0.09-0.03,0.19,0.03,0.22,0.13c0.01,0.05,0.01,0.09-0.02,0.13c-0.02,0.04-0.06,0.07-0.11,0.08
							C26.57,26.33,26.56,26.34,26.54,26.34z"/>
						<path class="st1" d="M26.54,26.04c-0.01,0-0.02,0-0.03,0c-0.03,0.01-0.05,0.03-0.07,0.05c-0.02,0.03-0.02,0.06-0.01,0.09
							c0.02,0.06,0.08,0.1,0.14,0.08c0.03-0.01,0.05-0.03,0.07-0.05c0.02-0.03,0.02-0.06,0.01-0.09
							C26.64,26.08,26.59,26.04,26.54,26.04z"/>
					</g>
				</g>
			</g>
		</g>
		<g>
			<g>
				<g>
					<g>
						<path class="st1" d="M28.41,27.73c-0.08,0-0.15-0.05-0.17-0.13c-0.01-0.05-0.01-0.09,0.02-0.13c0.02-0.04,0.06-0.07,0.11-0.08
							c0.09-0.03,0.19,0.03,0.22,0.13c0.01,0.05,0.01,0.09-0.02,0.13c-0.02,0.04-0.06,0.07-0.11,0.08
							C28.44,27.73,28.42,27.73,28.41,27.73z M28.41,27.44c-0.01,0-0.02,0-0.03,0c-0.03,0.01-0.05,0.03-0.07,0.05
							c-0.02,0.03-0.02,0.06-0.01,0.09c0.02,0.06,0.08,0.1,0.14,0.08c0.03-0.01,0.05-0.03,0.07-0.05c0.02-0.03,0.02-0.06,0.01-0.09
							C28.5,27.48,28.46,27.44,28.41,27.44z"/>
					</g>
				</g>
			</g>
		</g>
		<g>
			<g>
				<g>
					<g>
						<path class="st1" d="M24.66,26.05c-0.08,0-0.15-0.05-0.17-0.13c-0.01-0.05-0.01-0.09,0.02-0.13c0.02-0.04,0.06-0.07,0.11-0.08
							c0.09-0.02,0.19,0.03,0.22,0.13c0.01,0.05,0.01,0.09-0.02,0.13c-0.02,0.04-0.06,0.07-0.11,0.08
							C24.69,26.05,24.68,26.05,24.66,26.05z"/>
						<path class="st1" d="M24.66,25.76c-0.01,0-0.02,0-0.03,0c-0.03,0.01-0.05,0.03-0.07,0.05c-0.02,0.03-0.02,0.06-0.01,0.09
							c0.02,0.06,0.08,0.1,0.14,0.08c0.03-0.01,0.05-0.03,0.07-0.05c0.02-0.03,0.02-0.06,0.01-0.09
							C24.76,25.8,24.71,25.76,24.66,25.76z"/>
					</g>
				</g>
			</g>
		</g>
		<g>
			<g>
				<g>
					<g>
						<path class="st1" d="M27.65,28.26c-0.08,0-0.15-0.05-0.17-0.13c-0.01-0.05-0.01-0.09,0.02-0.13c0.02-0.04,0.06-0.07,0.11-0.08
							c0.09-0.02,0.19,0.03,0.22,0.13c0.01,0.05,0.01,0.09-0.02,0.13c-0.02,0.04-0.06,0.07-0.11,0.08
							C27.68,28.25,27.66,28.26,27.65,28.26z M27.65,27.97c-0.01,0-0.02,0-0.03,0c-0.03,0.01-0.05,0.03-0.07,0.05
							c-0.02,0.03-0.02,0.06-0.01,0.09c0.02,0.06,0.08,0.1,0.14,0.08c0.03-0.01,0.05-0.03,0.07-0.05c0.02-0.03,0.02-0.06,0.01-0.09
							C27.74,28,27.7,27.97,27.65,27.97z"/>
					</g>
				</g>
			</g>
		</g>
		<g>
			<g>
				<g>
					<g>
						<path class="st1" d="M28.34,23.18c-0.08,0-0.15-0.05-0.17-0.13c-0.01-0.05-0.01-0.09,0.02-0.13c0.02-0.04,0.06-0.07,0.11-0.08
							c0.09-0.02,0.19,0.03,0.22,0.13c0.01,0.05,0.01,0.09-0.02,0.13c-0.02,0.04-0.06,0.07-0.11,0.08
							C28.37,23.17,28.35,23.18,28.34,23.18z"/>
						<path class="st1" d="M28.34,22.89c-0.01,0-0.02,0-0.03,0c-0.03,0.01-0.05,0.03-0.07,0.05c-0.02,0.03-0.02,0.06-0.01,0.09
							c0.02,0.06,0.08,0.1,0.14,0.08c0.03-0.01,0.05-0.03,0.07-0.05c0.02-0.03,0.02-0.06,0.01-0.09
							C28.44,22.92,28.39,22.89,28.34,22.89z"/>
					</g>
				</g>
			</g>
		</g>
		<g>
			<g>
				<g>
					<g>
						<path class="st1" d="M30.75,23.53c-0.08,0-0.15-0.05-0.17-0.13c-0.01-0.05-0.01-0.09,0.02-0.13c0.02-0.04,0.06-0.07,0.11-0.08
							c0.09-0.02,0.19,0.03,0.22,0.13c0.01,0.05,0.01,0.09-0.02,0.13c-0.02,0.04-0.06,0.07-0.11,0.08
							C30.78,23.53,30.76,23.53,30.75,23.53z"/>
						<path class="st1" d="M30.75,23.24c-0.01,0-0.02,0-0.03,0c-0.03,0.01-0.05,0.03-0.07,0.05c-0.02,0.03-0.02,0.06-0.01,0.09
							c0.02,0.06,0.08,0.1,0.14,0.08c0.03-0.01,0.05-0.03,0.07-0.05c0.02-0.03,0.02-0.06,0.01-0.09
							C30.85,23.27,30.8,23.24,30.75,23.24z"/>
					</g>
				</g>
			</g>
		</g>
		<g>
			<g>
				<g>
					<g>
						<path class="st1" d="M29.39,23.51c-0.08,0-0.15-0.05-0.17-0.13c-0.01-0.05-0.01-0.09,0.02-0.13c0.02-0.04,0.06-0.07,0.11-0.08
							c0.09-0.02,0.19,0.03,0.22,0.13c0.01,0.05,0.01,0.09-0.02,0.13c-0.02,0.04-0.06,0.07-0.11,0.08
							C29.42,23.5,29.4,23.51,29.39,23.51z"/>
						<path class="st1" d="M29.39,23.22c-0.01,0-0.02,0-0.03,0c-0.03,0.01-0.05,0.03-0.07,0.05c-0.02,0.03-0.02,0.06-0.01,0.09
							c0.02,0.06,0.08,0.1,0.14,0.08c0.03-0.01,0.05-0.03,0.07-0.05c0.02-0.03,0.02-0.06,0.01-0.09
							C29.49,23.25,29.44,23.22,29.39,23.22z"/>
					</g>
				</g>
			</g>
		</g>
		<g>
			<g>
				<g>
					<g>
						<path class="st1" d="M26.8,23.92c-0.08,0-0.15-0.05-0.17-0.13c-0.01-0.05-0.01-0.09,0.02-0.13c0.02-0.04,0.06-0.07,0.11-0.08
							c0.09-0.02,0.19,0.03,0.22,0.13c0.01,0.05,0.01,0.09-0.02,0.13c-0.02,0.04-0.06,0.07-0.11,0.08
							C26.83,23.92,26.82,23.92,26.8,23.92z"/>
						<path class="st1" d="M26.8,23.63c-0.01,0-0.02,0-0.03,0c-0.03,0.01-0.05,0.03-0.07,0.05c-0.02,0.03-0.02,0.06-0.01,0.09
							c0.02,0.06,0.08,0.1,0.14,0.08c0.03-0.01,0.05-0.03,0.07-0.05c0.02-0.03,0.02-0.06,0.01-0.09
							C26.9,23.66,26.85,23.63,26.8,23.63z"/>
					</g>
				</g>
			</g>
		</g>
		<g>
			<g>
				<g>
					<g>
						<path class="st1" d="M25.89,26.58c-0.08,0-0.15-0.05-0.17-0.13c-0.01-0.05-0.01-0.09,0.02-0.13c0.02-0.04,0.06-0.07,0.11-0.08
							c0.09-0.03,0.19,0.03,0.22,0.13c0.01,0.05,0.01,0.09-0.02,0.13c-0.02,0.04-0.06,0.07-0.11,0.08
							C25.92,26.58,25.91,26.58,25.89,26.58z"/>
						<path class="st1" d="M25.89,26.29c-0.01,0-0.02,0-0.03,0c-0.03,0.01-0.05,0.03-0.07,0.05c-0.02,0.03-0.02,0.06-0.01,0.09
							c0.02,0.06,0.08,0.1,0.14,0.08c0.03-0.01,0.05-0.03,0.07-0.05C26,26.43,26.01,26.4,26,26.37
							C25.99,26.32,25.94,26.29,25.89,26.29z"/>
					</g>
				</g>
			</g>
		</g>
		<g>
			<g>
				<g>
					<g>
						<path class="st1" d="M27.06,26.93c-0.08,0-0.15-0.05-0.17-0.13c-0.01-0.05-0.01-0.09,0.02-0.13c0.02-0.04,0.06-0.07,0.11-0.08
							c0.09-0.03,0.19,0.03,0.22,0.13c0.01,0.05,0.01,0.09-0.02,0.13c-0.02,0.04-0.06,0.07-0.11,0.08
							C27.09,26.93,27.08,26.93,27.06,26.93z"/>
						<path class="st1" d="M27.06,26.64c-0.01,0-0.02,0-0.03,0c-0.03,0.01-0.05,0.03-0.07,0.05c-0.02,0.03-0.02,0.06-0.01,0.09
							c0.02,0.06,0.08,0.1,0.14,0.08c0.03-0.01,0.05-0.03,0.07-0.05c0.02-0.03,0.02-0.06,0.01-0.09
							C27.16,26.67,27.11,26.64,27.06,26.64z"/>
					</g>
				</g>
			</g>
		</g>
		<g>
			<g>
				<g>
					<g>
						<path class="st1" d="M23.49,27.91c-0.08,0-0.15-0.05-0.17-0.13c-0.01-0.05-0.01-0.09,0.02-0.13c0.02-0.04,0.06-0.07,0.11-0.08
							c0.09-0.02,0.19,0.03,0.22,0.13c0.01,0.05,0.01,0.09-0.02,0.13c-0.02,0.04-0.06,0.07-0.11,0.08
							C23.52,27.91,23.51,27.91,23.49,27.91z"/>
						<path class="st1" d="M23.49,27.62c-0.01,0-0.02,0-0.03,0c-0.03,0.01-0.05,0.03-0.07,0.05c-0.02,0.03-0.02,0.06-0.01,0.09
							c0.02,0.06,0.08,0.1,0.14,0.08c0.03-0.01,0.05-0.03,0.07-0.05c0.02-0.03,0.02-0.06,0.01-0.09
							C23.59,27.66,23.55,27.62,23.49,27.62z"/>
					</g>
				</g>
			</g>
		</g>
		<g>
			<g>
				<g>
					<g>
						<path class="st1" d="M24.89,28.26c-0.08,0-0.15-0.05-0.17-0.13c-0.01-0.05-0.01-0.09,0.02-0.13c0.02-0.04,0.06-0.07,0.11-0.08
							c0.09-0.02,0.19,0.03,0.22,0.13c0.01,0.05,0.01,0.09-0.02,0.13c-0.02,0.04-0.06,0.07-0.11,0.08
							C24.92,28.26,24.91,28.26,24.89,28.26z M24.89,27.97c-0.01,0-0.02,0-0.03,0c-0.03,0.01-0.05,0.03-0.07,0.05
							c-0.02,0.03-0.02,0.06-0.01,0.09c0.02,0.06,0.08,0.1,0.14,0.08c0.03-0.01,0.05-0.03,0.07-0.05c0.02-0.03,0.02-0.06,0.01-0.09
							C24.99,28.01,24.95,27.97,24.89,27.97z"/>
					</g>
				</g>
			</g>
		</g>
		<g>
			<g>
				<g>
					<g>
						<path class="st1" d="M24.7,29.61c-0.08,0-0.15-0.05-0.17-0.13c-0.01-0.05-0.01-0.09,0.02-0.13c0.02-0.04,0.06-0.07,0.11-0.08
							c0.09-0.03,0.19,0.03,0.22,0.13c0.01,0.05,0.01,0.09-0.02,0.13c-0.02,0.04-0.06,0.07-0.11,0.08
							C24.73,29.61,24.71,29.61,24.7,29.61z M24.7,29.32c-0.01,0-0.02,0-0.03,0c-0.03,0.01-0.05,0.03-0.07,0.05
							c-0.02,0.03-0.02,0.06-0.01,0.09c0.02,0.06,0.08,0.1,0.14,0.08c0.03-0.01,0.05-0.03,0.07-0.05c0.02-0.03,0.02-0.06,0.01-0.09
							C24.79,29.35,24.75,29.32,24.7,29.32z"/>
					</g>
				</g>
			</g>
		</g>
		<g>
			<g>
				<g>
					<g>
						<path class="st1" d="M23.76,28.96c-0.08,0-0.15-0.05-0.17-0.13c-0.01-0.05-0.01-0.09,0.02-0.13c0.02-0.04,0.06-0.07,0.11-0.08
							c0.09-0.02,0.19,0.03,0.22,0.13c0.01,0.05,0.01,0.09-0.02,0.13c-0.02,0.04-0.06,0.07-0.11,0.08
							C23.79,28.96,23.78,28.96,23.76,28.96z"/>
						<path class="st1" d="M23.76,28.67c-0.01,0-0.02,0-0.03,0c-0.03,0.01-0.05,0.03-0.07,0.05c-0.02,0.03-0.02,0.06-0.01,0.09
							c0.02,0.06,0.08,0.1,0.14,0.08c0.03-0.01,0.05-0.03,0.07-0.05s0.02-0.06,0.01-0.09C23.86,28.71,23.81,28.67,23.76,28.67z"/>
					</g>
				</g>
			</g>
		</g>
		<g>
			<g>
				<g>
					<g>
						<path class="st1" d="M26.48,28.17c-0.08,0-0.15-0.05-0.17-0.13c-0.01-0.05-0.01-0.09,0.02-0.13c0.02-0.04,0.06-0.07,0.11-0.08
							c0.09-0.02,0.19,0.03,0.22,0.13c0.01,0.05,0.01,0.09-0.02,0.13c-0.02,0.04-0.06,0.07-0.11,0.08
							C26.51,28.17,26.49,28.17,26.48,28.17z M26.48,27.88c-0.01,0-0.02,0-0.03,0c-0.03,0.01-0.05,0.03-0.07,0.05
							c-0.02,0.03-0.02,0.06-0.01,0.09c0.02,0.06,0.08,0.1,0.14,0.08c0.03-0.01,0.05-0.03,0.07-0.05c0.02-0.03,0.02-0.06,0.01-0.09
							C26.58,27.92,26.53,27.88,26.48,27.88z"/>
					</g>
				</g>
			</g>
		</g>
		<g>
			<g>
				<g>
					<g>
						<path class="st1" d="M27.44,26.37c-0.08,0-0.15-0.05-0.17-0.13c-0.01-0.05-0.01-0.09,0.02-0.13c0.02-0.04,0.06-0.07,0.11-0.08
							c0.09-0.02,0.19,0.03,0.22,0.13c0.01,0.05,0.01,0.09-0.02,0.13c-0.02,0.04-0.06,0.07-0.11,0.08
							C27.47,26.37,27.45,26.37,27.44,26.37z"/>
						<path class="st1" d="M27.44,26.08c-0.01,0-0.02,0-0.03,0c-0.03,0.01-0.05,0.03-0.07,0.05c-0.02,0.03-0.02,0.06-0.01,0.09
							c0.02,0.06,0.08,0.1,0.14,0.08c0.03-0.01,0.05-0.03,0.07-0.05c0.02-0.03,0.02-0.06,0.01-0.09
							C27.53,26.12,27.49,26.08,27.44,26.08z"/>
					</g>
				</g>
			</g>
		</g>
		<g>
			<g>
				<g>
					<g>
						<path class="st1" d="M28.26,24.14c-0.08,0-0.15-0.05-0.17-0.13c-0.01-0.05-0.01-0.09,0.02-0.13c0.02-0.04,0.06-0.07,0.11-0.08
							c0.09-0.03,0.19,0.03,0.22,0.13c0.01,0.05,0.01,0.09-0.02,0.13c-0.02,0.04-0.06,0.07-0.11,0.08
							C28.29,24.13,28.27,24.14,28.26,24.14z"/>
						<path class="st1" d="M28.26,23.85c-0.01,0-0.02,0-0.03,0c-0.03,0.01-0.05,0.03-0.07,0.05c-0.02,0.03-0.02,0.06-0.01,0.09
							c0.02,0.06,0.08,0.1,0.14,0.08c0.03-0.01,0.05-0.03,0.07-0.05c0.02-0.03,0.02-0.06,0.01-0.09
							C28.36,23.88,28.31,23.85,28.26,23.85z"/>
					</g>
				</g>
			</g>
		</g>
		<g>
			<g>
				<g>
					<g>
						<path class="st1" d="M27.58,23.57c-0.08,0-0.15-0.05-0.17-0.13c-0.01-0.05-0.01-0.09,0.02-0.13c0.02-0.04,0.06-0.07,0.11-0.08
							c0.09-0.03,0.19,0.03,0.22,0.13c0.01,0.05,0.01,0.09-0.02,0.13c-0.02,0.04-0.06,0.07-0.11,0.08
							C27.61,23.56,27.6,23.57,27.58,23.57z"/>
						<path class="st1" d="M27.58,23.28c-0.01,0-0.02,0-0.03,0c-0.03,0.01-0.05,0.03-0.07,0.05c-0.02,0.03-0.02,0.06-0.01,0.09
							c0.02,0.06,0.08,0.1,0.14,0.08c0.03-0.01,0.05-0.03,0.07-0.05c0.02-0.03,0.02-0.06,0.01-0.09
							C27.68,23.31,27.63,23.28,27.58,23.28z"/>
					</g>
				</g>
			</g>
		</g>
		<g>
			<g>
				<g>
					<g>
						<path class="st1" d="M25.75,25.01c-0.08,0-0.15-0.05-0.17-0.13c-0.01-0.05-0.01-0.09,0.02-0.13c0.02-0.04,0.06-0.07,0.11-0.08
							c0.09-0.02,0.19,0.03,0.22,0.13c0.01,0.05,0.01,0.09-0.02,0.13c-0.02,0.04-0.06,0.07-0.11,0.08
							C25.78,25.01,25.77,25.01,25.75,25.01z"/>
						<path class="st1" d="M25.76,24.72c-0.01,0-0.02,0-0.03,0c-0.03,0.01-0.05,0.03-0.07,0.05c-0.02,0.03-0.02,0.06-0.01,0.09
							c0.02,0.06,0.08,0.1,0.14,0.08c0.03-0.01,0.05-0.03,0.07-0.05c0.02-0.03,0.02-0.06,0.01-0.09
							C25.85,24.75,25.81,24.72,25.76,24.72z"/>
					</g>
				</g>
			</g>
		</g>
		<g>
			<g>
				<g>
					<g>
						<path class="st1" d="M28.71,25.4c-0.08,0-0.15-0.05-0.17-0.13c-0.01-0.05-0.01-0.09,0.02-0.13c0.02-0.04,0.06-0.07,0.11-0.08
							c0.09-0.02,0.19,0.03,0.22,0.13c0.01,0.05,0.01,0.09-0.02,0.13c-0.02,0.04-0.06,0.07-0.11,0.08
							C28.74,25.4,28.73,25.4,28.71,25.4z"/>
						<path class="st1" d="M28.71,25.11c-0.01,0-0.02,0-0.03,0c-0.03,0.01-0.05,0.03-0.07,0.05c-0.02,0.03-0.02,0.06-0.01,0.09
							c0.02,0.06,0.08,0.1,0.14,0.08c0.03-0.01,0.05-0.03,0.07-0.05c0.02-0.03,0.02-0.06,0.01-0.09
							C28.81,25.14,28.76,25.11,28.71,25.11z"/>
					</g>
				</g>
			</g>
		</g>
		<g>
			<g>
				<g>
					<g>
						<path class="st1" d="M28.18,26.34c-0.2,0-0.37-0.13-0.42-0.32c-0.03-0.11-0.01-0.23,0.04-0.33c0.06-0.1,0.15-0.17,0.26-0.2
							c0.23-0.06,0.47,0.08,0.53,0.31c0.03,0.11,0.01,0.23-0.04,0.33c-0.06,0.1-0.15,0.17-0.26,0.2
							C28.25,26.33,28.21,26.34,28.18,26.34z M28.18,25.63c-0.02,0-0.05,0-0.07,0.01c-0.07,0.02-0.13,0.06-0.17,0.13
							c-0.04,0.06-0.05,0.14-0.03,0.21c0.04,0.15,0.19,0.24,0.34,0.2c0.07-0.02,0.13-0.06,0.17-0.13c0.04-0.06,0.05-0.14,0.03-0.21
							C28.41,25.71,28.3,25.63,28.18,25.63z"/>
					</g>
				</g>
			</g>
		</g>
		<g>
			<g>
				<g>
					<g>
						<path class="st1" d="M26.14,25.82c-0.17,0-0.32-0.12-0.36-0.28c-0.05-0.2,0.07-0.41,0.27-0.46c0.2-0.05,0.41,0.07,0.46,0.27
							c0.05,0.2-0.07,0.41-0.27,0.46C26.2,25.81,26.17,25.82,26.14,25.82z M26.14,25.2c-0.02,0-0.04,0-0.06,0.01
							c-0.13,0.03-0.21,0.17-0.17,0.3c0.03,0.13,0.17,0.21,0.3,0.17c0.13-0.03,0.21-0.17,0.17-0.3
							C26.34,25.27,26.25,25.2,26.14,25.2z"/>
					</g>
				</g>
			</g>
		</g>
		<g>
			<g>
				<g>
					<g>
						<path class="st1" d="M27.18,27.67c-0.17,0-0.32-0.12-0.36-0.28c-0.05-0.2,0.07-0.41,0.27-0.46c0.2-0.05,0.41,0.07,0.46,0.27
							c0.05,0.2-0.07,0.41-0.27,0.46C27.24,27.67,27.21,27.67,27.18,27.67z M27.18,27.05c-0.02,0-0.04,0-0.06,0.01
							c-0.13,0.03-0.21,0.17-0.17,0.3c0.03,0.13,0.17,0.21,0.3,0.17c0.13-0.03,0.21-0.17,0.17-0.3
							C27.38,27.12,27.29,27.05,27.18,27.05z"/>
					</g>
				</g>
			</g>
		</g>
		<g>
			<g>
				<g>
					<g>
						<path class="st1" d="M24.08,27.49c-0.17,0-0.32-0.12-0.36-0.28c-0.05-0.2,0.07-0.41,0.27-0.46c0.2-0.05,0.41,0.07,0.46,0.27
							c0.05,0.2-0.07,0.41-0.27,0.46C24.14,27.49,24.11,27.49,24.08,27.49z M24.08,26.87c-0.02,0-0.04,0-0.06,0.01
							c-0.13,0.03-0.21,0.17-0.17,0.3c0.03,0.13,0.17,0.21,0.3,0.17c0.13-0.03,0.21-0.17,0.17-0.3
							C24.29,26.95,24.19,26.87,24.08,26.87z"/>
					</g>
				</g>
			</g>
		</g>
		<g>
			<g>
				<g>
					<g>
						<path class="st1" d="M24.16,28.41c-0.17,0-0.32-0.12-0.36-0.28c-0.05-0.2,0.07-0.41,0.27-0.46c0.2-0.05,0.41,0.07,0.46,0.27
							c0.05,0.2-0.07,0.41-0.27,0.46C24.22,28.41,24.19,28.41,24.16,28.41z M24.16,27.79c-0.02,0-0.04,0-0.06,0.01
							c-0.13,0.03-0.21,0.17-0.17,0.3c0.03,0.13,0.17,0.21,0.3,0.17c0.13-0.03,0.21-0.17,0.17-0.3
							C24.37,27.86,24.27,27.79,24.16,27.79z"/>
					</g>
				</g>
			</g>
		</g>
		<g>
			<g>
				<g>
					<g>
						<path class="st1" d="M25.66,29.06c-0.17,0-0.32-0.12-0.36-0.28c-0.05-0.2,0.07-0.41,0.27-0.46c0.2-0.05,0.41,0.07,0.46,0.27
							c0.05,0.2-0.07,0.41-0.27,0.46C25.72,29.05,25.69,29.06,25.66,29.06z M25.66,28.44c-0.02,0-0.04,0-0.06,0.01
							c-0.13,0.03-0.21,0.17-0.17,0.3c0.03,0.13,0.16,0.21,0.3,0.17c0.13-0.03,0.21-0.17,0.17-0.3
							C25.86,28.51,25.77,28.44,25.66,28.44z"/>
					</g>
				</g>
			</g>
		</g>
		<g>
			<g>
				<g>
					<g>
						<path class="st1" d="M26.34,29.69c-0.17,0-0.32-0.12-0.36-0.28c-0.05-0.2,0.07-0.41,0.27-0.46c0.2-0.05,0.41,0.07,0.46,0.27
							c0.05,0.2-0.07,0.41-0.27,0.46C26.41,29.69,26.38,29.69,26.34,29.69z M26.34,29.07c-0.02,0-0.04,0-0.06,0.01
							c-0.13,0.03-0.21,0.17-0.17,0.3c0.03,0.13,0.17,0.21,0.3,0.17c0.13-0.03,0.21-0.17,0.17-0.3
							C26.55,29.14,26.45,29.07,26.34,29.07z"/>
					</g>
				</g>
			</g>
		</g>
		<g>
			<g>
				<g>
					<g>
						<path class="st1" d="M27.03,30.12c-0.17,0-0.32-0.12-0.36-0.28c-0.05-0.2,0.07-0.41,0.27-0.46c0.2-0.05,0.41,0.07,0.46,0.27
							c0.05,0.2-0.07,0.41-0.27,0.46C27.09,30.11,27.06,30.12,27.03,30.12z M27.03,29.5c-0.02,0-0.04,0-0.06,0.01
							c-0.13,0.03-0.21,0.17-0.17,0.3c0.03,0.13,0.17,0.21,0.3,0.17c0.13-0.03,0.21-0.17,0.17-0.3
							C27.23,29.57,27.14,29.5,27.03,29.5z"/>
					</g>
				</g>
			</g>
		</g>
		<g>
			<g>
				<g>
					<g>
						<path class="st1" d="M28.16,28.98c-0.17,0-0.32-0.12-0.36-0.28c-0.05-0.2,0.07-0.41,0.27-0.46c0.2-0.05,0.41,0.07,0.46,0.27
							c0.05,0.2-0.07,0.41-0.27,0.46C28.23,28.97,28.2,28.98,28.16,28.98z M28.16,28.36c-0.02,0-0.04,0-0.06,0.01
							c-0.13,0.03-0.21,0.17-0.17,0.3c0.03,0.13,0.17,0.21,0.3,0.17c0.13-0.03,0.21-0.17,0.17-0.3
							C28.37,28.43,28.28,28.36,28.16,28.36z"/>
					</g>
				</g>
			</g>
		</g>
		<g>
			<g>
				<g>
					<g>
						<path class="st1" d="M26,28.09c-0.17,0-0.32-0.12-0.36-0.28c-0.05-0.2,0.07-0.41,0.27-0.46c0.2-0.05,0.41,0.07,0.46,0.27
							c0.05,0.2-0.07,0.41-0.27,0.46C26.07,28.09,26.04,28.09,26,28.09z M26,27.47c-0.02,0-0.04,0-0.06,0.01
							c-0.13,0.03-0.21,0.17-0.17,0.3c0.03,0.13,0.17,0.21,0.3,0.17c0.13-0.03,0.21-0.17,0.17-0.3C26.21,27.55,26.11,27.47,26,27.47
							z"/>
					</g>
				</g>
			</g>
		</g>
		<g>
			<g>
				<g>
					<g>
						<path class="st1" d="M25.37,26.31c-0.17,0-0.32-0.12-0.36-0.28c-0.05-0.2,0.07-0.41,0.27-0.46c0.2-0.05,0.41,0.07,0.46,0.27
							c0.05,0.2-0.07,0.41-0.27,0.46C25.43,26.31,25.4,26.31,25.37,26.31z M25.37,25.69c-0.02,0-0.04,0-0.06,0.01
							c-0.13,0.03-0.21,0.17-0.17,0.3c0.03,0.13,0.17,0.21,0.3,0.17c0.13-0.03,0.21-0.17,0.17-0.3
							C25.58,25.77,25.48,25.69,25.37,25.69z"/>
					</g>
				</g>
			</g>
		</g>
		<g>
			<g>
				<g>
					<g>
						<path class="st1" d="M28.09,27.28c-0.17,0-0.32-0.12-0.36-0.28c-0.05-0.2,0.07-0.41,0.27-0.46c0.2-0.05,0.41,0.07,0.46,0.27
							c0.05,0.2-0.07,0.41-0.27,0.46C28.15,27.28,28.12,27.28,28.09,27.28z M28.09,26.66c-0.02,0-0.04,0-0.06,0.01
							c-0.13,0.03-0.21,0.17-0.17,0.3c0.03,0.13,0.16,0.21,0.3,0.17c0.13-0.03,0.21-0.17,0.17-0.3
							C28.29,26.73,28.2,26.66,28.09,26.66z"/>
					</g>
				</g>
			</g>
		</g>
		<g>
			<g>
				<g>
					<g>
						<path class="st1" d="M25.1,27.17c-0.17,0-0.32-0.12-0.36-0.28c-0.05-0.2,0.07-0.41,0.27-0.46c0.2-0.05,0.41,0.07,0.46,0.27
							c0.05,0.2-0.07,0.41-0.27,0.46C25.16,27.17,25.13,27.17,25.1,27.17z M25.1,26.55c-0.02,0-0.04,0-0.06,0.01
							c-0.13,0.03-0.21,0.17-0.17,0.3c0.03,0.13,0.17,0.21,0.3,0.17c0.13-0.03,0.21-0.17,0.17-0.3
							C25.3,26.62,25.21,26.55,25.1,26.55z"/>
					</g>
				</g>
			</g>
		</g>
		<g>
			<g>
				<g>
					<g>
						<path class="st1" d="M27.68,24.7c-0.17,0-0.32-0.12-0.36-0.28c-0.05-0.2,0.07-0.41,0.27-0.46c0.2-0.05,0.41,0.07,0.46,0.27
							c0.05,0.2-0.07,0.41-0.27,0.46C27.74,24.7,27.71,24.7,27.68,24.7z M27.68,24.08c-0.02,0-0.04,0-0.06,0.01
							c-0.13,0.03-0.21,0.17-0.17,0.3c0.03,0.13,0.17,0.21,0.3,0.17c0.13-0.03,0.21-0.17,0.17-0.3
							C27.89,24.15,27.79,24.08,27.68,24.08z"/>
					</g>
				</g>
			</g>
		</g>
		<g>
			<g>
				<g>
					<g>
						<path class="st1" d="M26.58,25c-0.17,0-0.32-0.12-0.36-0.28c-0.05-0.2,0.07-0.41,0.27-0.46c0.2-0.05,0.41,0.07,0.46,0.27
							c0.05,0.2-0.07,0.41-0.27,0.46C26.65,24.99,26.61,25,26.58,25z M26.58,24.38c-0.02,0-0.04,0-0.06,0.01
							c-0.13,0.03-0.21,0.17-0.17,0.3c0.03,0.13,0.17,0.21,0.3,0.17c0.13-0.03,0.21-0.17,0.17-0.3
							C26.79,24.45,26.69,24.38,26.58,24.38z"/>
					</g>
				</g>
			</g>
		</g>
		<g>
			<g>
				<g>
					<g>
						<path class="st1" d="M27.12,25.91c-0.17,0-0.32-0.12-0.36-0.28c-0.05-0.2,0.07-0.41,0.27-0.46c0.2-0.05,0.41,0.07,0.46,0.27
							c0.05,0.2-0.07,0.41-0.27,0.46C27.18,25.91,27.15,25.91,27.12,25.91z M27.12,25.29c-0.02,0-0.04,0-0.06,0.01
							c-0.13,0.03-0.21,0.17-0.17,0.3c0.03,0.13,0.17,0.21,0.3,0.17c0.13-0.03,0.21-0.17,0.17-0.3
							C27.32,25.37,27.23,25.29,27.12,25.29z"/>
					</g>
				</g>
			</g>
		</g>
		<g>
			<g>
				<g>
					<g>
						<path class="st1" d="M23.92,32.73c-0.17,0-0.32-0.12-0.36-0.28c-0.05-0.2,0.07-0.41,0.27-0.46c0.2-0.05,0.41,0.07,0.46,0.27
							c0.05,0.2-0.07,0.41-0.27,0.46C23.98,32.72,23.95,32.73,23.92,32.73z M23.92,32.11c-0.02,0-0.04,0-0.06,0.01
							c-0.13,0.03-0.21,0.17-0.17,0.3c0.03,0.13,0.17,0.21,0.3,0.17c0.13-0.03,0.21-0.17,0.17-0.3
							C24.12,32.18,24.03,32.11,23.92,32.11z"/>
					</g>
				</g>
			</g>
		</g>
		<g>
			<g>
				<g>
					<g>
						<path class="st1" d="M24.21,31.76c-0.17,0-0.32-0.12-0.36-0.28c-0.05-0.2,0.07-0.41,0.27-0.46c0.2-0.05,0.41,0.07,0.46,0.27
							c0.05,0.2-0.07,0.41-0.27,0.46C24.27,31.76,24.24,31.76,24.21,31.76z M24.21,31.14c-0.02,0-0.04,0-0.06,0.01
							c-0.13,0.03-0.21,0.17-0.17,0.3c0.03,0.13,0.17,0.21,0.3,0.17c0.13-0.03,0.21-0.17,0.17-0.3
							C24.41,31.22,24.32,31.14,24.21,31.14z"/>
					</g>
				</g>
			</g>
		</g>
		<g>
			<g>
				<g>
					<g>
						<path class="st1" d="M25.31,31.92c-0.17,0-0.32-0.12-0.36-0.28c-0.05-0.2,0.07-0.41,0.27-0.46c0.2-0.05,0.41,0.07,0.46,0.27
							c0.05,0.2-0.07,0.41-0.27,0.46C25.38,31.91,25.34,31.92,25.31,31.92z M25.31,31.3c-0.02,0-0.04,0-0.06,0.01
							c-0.13,0.03-0.21,0.17-0.17,0.3c0.03,0.13,0.17,0.21,0.3,0.17c0.13-0.03,0.21-0.17,0.17-0.3
							C25.52,31.37,25.42,31.3,25.31,31.3z"/>
					</g>
				</g>
			</g>
		</g>
		<g>
			<g>
				<g>
					<g>
						<path class="st1" d="M26.38,31.26c-0.17,0-0.32-0.12-0.36-0.28c-0.05-0.2,0.07-0.41,0.27-0.46c0.2-0.05,0.41,0.07,0.46,0.27
							c0.05,0.2-0.07,0.41-0.27,0.46C26.45,31.25,26.41,31.26,26.38,31.26z M26.38,30.64c-0.02,0-0.04,0-0.06,0.01
							c-0.13,0.03-0.21,0.17-0.17,0.3c0.03,0.13,0.16,0.21,0.3,0.17c0.13-0.03,0.21-0.17,0.17-0.3
							C26.59,30.71,26.49,30.64,26.38,30.64z"/>
					</g>
				</g>
			</g>
		</g>
		<g>
			<g>
				<g>
					<g>
						<path class="st1" d="M30.18,23.13c-0.1,0-0.19-0.07-0.22-0.17c-0.02-0.06-0.01-0.12,0.02-0.17c0.03-0.05,0.08-0.09,0.14-0.11
							c0.12-0.03,0.25,0.04,0.28,0.16c0.02,0.06,0.01,0.12-0.02,0.17c-0.03,0.05-0.08,0.09-0.14,0.11
							C30.22,23.12,30.2,23.13,30.18,23.13z M30.18,22.75c-0.01,0-0.02,0-0.04,0c-0.04,0.01-0.07,0.03-0.09,0.07
							c-0.02,0.03-0.03,0.07-0.02,0.11c0.02,0.08,0.1,0.12,0.18,0.11c0.04-0.01,0.07-0.03,0.09-0.07c0.02-0.03,0.03-0.07,0.02-0.11
							C30.31,22.8,30.25,22.75,30.18,22.75z"/>
					</g>
				</g>
			</g>
		</g>
		<g>
			<g>
				<g>
					<g>
						<path class="st1" d="M23.24,31.6c-0.1,0-0.19-0.07-0.22-0.17c-0.02-0.06-0.01-0.12,0.02-0.17c0.03-0.05,0.08-0.09,0.14-0.11
							c0.12-0.03,0.25,0.04,0.28,0.16c0.02,0.06,0.01,0.12-0.02,0.17c-0.03,0.05-0.08,0.09-0.14,0.11
							C23.28,31.6,23.26,31.6,23.24,31.6z M23.24,31.23c-0.01,0-0.03,0-0.04,0.01c-0.04,0.01-0.07,0.03-0.09,0.07
							c-0.02,0.03-0.03,0.07-0.02,0.11c0.02,0.08,0.1,0.13,0.18,0.1c0.04-0.01,0.07-0.03,0.09-0.07c0.02-0.03,0.03-0.07,0.02-0.11
							C23.36,31.27,23.31,31.23,23.24,31.23z"/>
					</g>
				</g>
			</g>
		</g>
		<g>
			<g>
				<g>
					<g>
						<path class="st1" d="M23.96,30.06c-0.1,0-0.19-0.07-0.22-0.17c-0.02-0.06-0.01-0.12,0.02-0.17c0.03-0.05,0.08-0.09,0.14-0.11
							c0.12-0.03,0.25,0.04,0.28,0.16c0.02,0.06,0.01,0.12-0.02,0.17c-0.03,0.05-0.08,0.09-0.14,0.11
							C24,30.06,23.98,30.06,23.96,30.06z M23.96,29.69c-0.01,0-0.02,0-0.04,0c-0.04,0.01-0.07,0.03-0.09,0.07
							c-0.02,0.03-0.03,0.07-0.02,0.11c0.02,0.08,0.1,0.12,0.18,0.1c0.04-0.01,0.07-0.03,0.09-0.07c0.02-0.03,0.03-0.07,0.02-0.11
							C24.08,29.73,24.02,29.69,23.96,29.69z"/>
					</g>
				</g>
			</g>
		</g>
		<g>
			<g>
				<g>
					<g>
						<path class="st1" d="M23.26,30.67c-0.1,0-0.19-0.07-0.22-0.17c-0.02-0.06-0.01-0.12,0.02-0.17c0.03-0.05,0.08-0.09,0.14-0.11
							c0.12-0.03,0.25,0.04,0.28,0.16c0.02,0.06,0.01,0.12-0.02,0.17c-0.03,0.05-0.08,0.09-0.14,0.11
							C23.3,30.67,23.28,30.67,23.26,30.67z M23.26,30.3c-0.01,0-0.03,0-0.04,0.01c-0.04,0.01-0.07,0.03-0.09,0.07
							c-0.02,0.03-0.03,0.07-0.02,0.11c0.02,0.08,0.1,0.12,0.18,0.1c0.04-0.01,0.07-0.03,0.09-0.07c0.02-0.03,0.03-0.07,0.02-0.11
							C23.38,30.34,23.33,30.3,23.26,30.3z"/>
					</g>
				</g>
			</g>
		</g>
		<g>
			<g>
				<g>
					<g>
						<path class="st1" d="M24.67,33.02c-0.1,0-0.19-0.07-0.22-0.17c-0.02-0.06-0.01-0.12,0.02-0.17c0.03-0.05,0.08-0.09,0.14-0.11
							c0.12-0.03,0.25,0.04,0.28,0.16c0.02,0.06,0.01,0.12-0.02,0.17c-0.03,0.05-0.08,0.09-0.14,0.11
							C24.71,33.02,24.69,33.02,24.67,33.02z M24.67,32.64c-0.01,0-0.03,0-0.04,0.01c-0.04,0.01-0.07,0.03-0.09,0.07
							c-0.02,0.03-0.03,0.07-0.02,0.11c0.02,0.08,0.1,0.13,0.18,0.11c0.04-0.01,0.07-0.03,0.09-0.07c0.02-0.03,0.03-0.07,0.02-0.11
							C24.8,32.69,24.74,32.64,24.67,32.64z"/>
					</g>
				</g>
			</g>
		</g>
		<g>
			<g>
				<g>
					<g>
						<path class="st1" d="M29.1,24.8c-0.1,0-0.19-0.07-0.22-0.17c-0.02-0.06-0.01-0.12,0.02-0.17c0.03-0.05,0.08-0.09,0.14-0.11
							c0.12-0.03,0.25,0.04,0.28,0.16c0.02,0.06,0.01,0.12-0.02,0.17c-0.03,0.05-0.08,0.09-0.14,0.11
							C29.14,24.79,29.12,24.8,29.1,24.8z M29.1,24.42c-0.01,0-0.02,0-0.04,0.01c-0.04,0.01-0.07,0.03-0.09,0.07
							c-0.02,0.03-0.03,0.07-0.02,0.11c0.02,0.08,0.1,0.13,0.18,0.11c0.04-0.01,0.07-0.03,0.09-0.07c0.02-0.03,0.03-0.07,0.02-0.11
							C29.22,24.47,29.17,24.42,29.1,24.42z"/>
					</g>
				</g>
			</g>
		</g>
		<g>
			<g>
				<g>
					<g>
						<path class="st1" d="M31.73,23.5c-0.1,0-0.19-0.07-0.22-0.17c-0.02-0.06-0.01-0.12,0.02-0.17c0.03-0.05,0.08-0.09,0.14-0.11
							c0.12-0.03,0.25,0.04,0.28,0.16c0.02,0.06,0.01,0.12-0.02,0.17c-0.03,0.05-0.08,0.09-0.14,0.11
							C31.77,23.5,31.75,23.5,31.73,23.5z M31.73,23.13c-0.01,0-0.02,0-0.04,0.01c-0.04,0.01-0.07,0.03-0.09,0.07
							c-0.02,0.03-0.03,0.07-0.02,0.11c0.02,0.08,0.1,0.13,0.18,0.11c0.04-0.01,0.07-0.03,0.09-0.07c0.02-0.03,0.03-0.07,0.02-0.11
							C31.85,23.17,31.8,23.13,31.73,23.13z"/>
					</g>
				</g>
			</g>
		</g>
		<g>
			<g>
				<g>
					<g>
						<path class="st1" d="M31.59,25.77c-0.1,0-0.19-0.07-0.22-0.17c-0.02-0.06-0.01-0.12,0.02-0.17s0.08-0.09,0.14-0.11
							c0.12-0.03,0.25,0.04,0.28,0.16c0.02,0.06,0.01,0.12-0.02,0.17c-0.03,0.05-0.08,0.09-0.14,0.11
							C31.63,25.76,31.61,25.77,31.59,25.77z M31.59,25.39c-0.01,0-0.02,0-0.04,0c-0.04,0.01-0.07,0.03-0.09,0.07
							c-0.02,0.03-0.03,0.07-0.02,0.11c0.02,0.08,0.1,0.13,0.18,0.11c0.04-0.01,0.07-0.03,0.09-0.07c0.02-0.03,0.03-0.07,0.02-0.11
							C31.71,25.43,31.65,25.39,31.59,25.39z"/>
					</g>
				</g>
			</g>
		</g>
		<g>
			<g>
				<g>
					<g>
						<g>
							<g>
								<path class="st1" d="M31.97,25.2c-0.12,0.03-0.25-0.04-0.28-0.16c-0.03-0.12,0.04-0.25,0.16-0.28
									c0.12-0.03,0.25,0.04,0.28,0.16C32.17,25.04,32.09,25.16,31.97,25.2z M31.88,24.83c-0.08,0.02-0.13,0.1-0.1,0.18
									c0.02,0.08,0.1,0.13,0.18,0.11c0.08-0.02,0.13-0.1,0.1-0.18C32.04,24.86,31.96,24.81,31.88,24.83z"/>
							</g>
						</g>
					</g>
				</g>
			</g>
		</g>
		<g>
			<g>
				<g>
					<g>
						<g>
							<g>
								<g>
									<path class="st1" d="M29,31.76c-0.12,0.03-0.25-0.04-0.28-0.16c-0.03-0.12,0.04-0.25,0.16-0.28
										c0.12-0.03,0.25,0.04,0.28,0.16C29.19,31.6,29.12,31.73,29,31.76z M28.9,31.4c-0.08,0.02-0.13,0.1-0.1,0.18
										c0.02,0.08,0.1,0.13,0.18,0.11c0.08-0.02,0.13-0.1,0.1-0.18C29.06,31.42,28.98,31.38,28.9,31.4z"/>
								</g>
							</g>
						</g>
					</g>
				</g>
			</g>
		</g>
		<g>
			<g>
				<g>
					<g>
						<g>
							<path class="st1" d="M34.48,28.08c-0.12-0.03-0.2-0.15-0.17-0.28c0.03-0.12,0.15-0.2,0.27-0.17c0.12,0.03,0.2,0.15,0.17,0.28
								C34.73,28.03,34.6,28.11,34.48,28.08z M34.57,27.71c-0.08-0.02-0.16,0.03-0.18,0.11c-0.02,0.08,0.03,0.16,0.11,0.18
								c0.08,0.02,0.16-0.03,0.18-0.11C34.69,27.81,34.65,27.73,34.57,27.71z"/>
						</g>
					</g>
				</g>
			</g>
		</g>
		<g>
			<g>
				<g>
					<g>
						<g>
							<g>
								<path class="st1" d="M31.55,33.01c-0.12-0.03-0.2-0.15-0.17-0.27c0.03-0.12,0.15-0.2,0.27-0.17
									c0.12,0.03,0.2,0.15,0.17,0.27C31.8,32.96,31.68,33.04,31.55,33.01z M31.64,32.64c-0.08-0.02-0.16,0.03-0.18,0.11
									c-0.02,0.08,0.03,0.16,0.11,0.18c0.08,0.02,0.16-0.03,0.18-0.11C31.77,32.74,31.72,32.66,31.64,32.64z"/>
							</g>
						</g>
					</g>
				</g>
			</g>
		</g>
		<g>
			<g>
				<g>
					<g>
						<g>
							<g>
								<path class="st1" d="M30.82,32.37c-0.12-0.03-0.2-0.15-0.17-0.27c0.03-0.12,0.15-0.2,0.27-0.17
									c0.12,0.03,0.2,0.15,0.17,0.28C31.06,32.32,30.94,32.4,30.82,32.37z M30.9,32.01c-0.08-0.02-0.16,0.03-0.18,0.11
									c-0.02,0.08,0.03,0.16,0.11,0.18c0.08,0.02,0.16-0.03,0.18-0.11C31.03,32.1,30.98,32.02,30.9,32.01z"/>
							</g>
						</g>
					</g>
				</g>
			</g>
		</g>
		<g>
			<g>
				<g>
					<g>
						<g>
							<g>
								<path class="st1" d="M29.77,33.29c-0.12-0.03-0.2-0.15-0.17-0.28c0.03-0.12,0.15-0.2,0.27-0.17
									c0.12,0.03,0.2,0.15,0.17,0.28C30.01,33.24,29.89,33.32,29.77,33.29z M29.85,32.93c-0.08-0.02-0.16,0.03-0.18,0.11
									c-0.02,0.08,0.03,0.16,0.11,0.18c0.08,0.02,0.16-0.03,0.18-0.11C29.98,33.02,29.93,32.95,29.85,32.93z"/>
							</g>
						</g>
					</g>
				</g>
			</g>
		</g>
		<g>
			<g>
				<g>
					<g>
						<path class="st1" d="M23.67,30.44c-0.03,0-0.06,0-0.09-0.01c-0.21-0.05-0.35-0.27-0.3-0.48c0.05-0.21,0.27-0.35,0.48-0.3
							c0.21,0.05,0.35,0.27,0.3,0.48C24.02,30.31,23.86,30.44,23.67,30.44z M23.67,29.78c-0.12,0-0.22,0.08-0.25,0.2
							c-0.03,0.14,0.05,0.28,0.19,0.31c0.14,0.03,0.28-0.05,0.31-0.19c0.03-0.14-0.05-0.28-0.19-0.31
							C23.71,29.78,23.69,29.78,23.67,29.78z"/>
					</g>
				</g>
			</g>
		</g>
		<g>
			<g>
				<g>
					<g>
						<path class="st1" d="M24.99,30.87c-0.05,0-0.1-0.01-0.15-0.02c-0.17-0.04-0.32-0.15-0.41-0.3c-0.09-0.15-0.12-0.33-0.08-0.5
							c0.08-0.35,0.44-0.57,0.8-0.49c0.17,0.04,0.32,0.15,0.41,0.3c0.09,0.15,0.12,0.33,0.08,0.5
							C25.57,30.66,25.3,30.87,24.99,30.87z M24.99,29.78c-0.2,0-0.37,0.14-0.41,0.33c-0.03,0.11-0.01,0.22,0.05,0.32
							c0.06,0.1,0.15,0.16,0.26,0.19c0.23,0.06,0.46-0.09,0.51-0.32c0.03-0.11,0.01-0.23-0.05-0.32c-0.06-0.1-0.15-0.16-0.26-0.19
							C25.06,29.79,25.03,29.78,24.99,29.78z"/>
					</g>
				</g>
			</g>
		</g>
		<g>
			<g>
				<g>
					<g>
						<path class="st1" d="M27.61,30.09c-0.01,0-0.03,0-0.04,0c-0.09-0.02-0.15-0.12-0.13-0.21c0.02-0.09,0.12-0.15,0.21-0.13
							c0.09,0.02,0.15,0.12,0.13,0.21C27.76,30.03,27.69,30.09,27.61,30.09z M27.61,29.79c-0.05,0-0.1,0.04-0.11,0.09
							c-0.01,0.06,0.02,0.12,0.08,0.14c0.06,0.02,0.12-0.03,0.14-0.08c0.01-0.06-0.02-0.12-0.08-0.14
							C27.63,29.8,27.62,29.79,27.61,29.79z"/>
					</g>
				</g>
			</g>
		</g>
		<g>
			<g>
				<g>
					<g>
						<path class="st1" d="M36.32,24.88c-0.01,0-0.03,0-0.04,0c-0.09-0.02-0.15-0.12-0.13-0.21c0.02-0.09,0.12-0.15,0.21-0.13
							c0.09,0.02,0.15,0.12,0.13,0.21C36.47,24.82,36.4,24.88,36.32,24.88z M36.32,24.59c-0.05,0-0.1,0.04-0.11,0.09
							c-0.01,0.06,0.02,0.12,0.08,0.14c0.06,0.02,0.12-0.02,0.14-0.08c0.01-0.06-0.02-0.12-0.08-0.14
							C36.34,24.59,36.33,24.59,36.32,24.59z"/>
					</g>
				</g>
			</g>
		</g>
		<g>
			<g>
				<g>
					<g>
						<path class="st1" d="M31.66,23c-0.01,0-0.03,0-0.04,0c-0.09-0.02-0.15-0.12-0.13-0.21c0.02-0.09,0.12-0.15,0.21-0.13
							c0.09,0.02,0.15,0.12,0.13,0.21C31.81,22.94,31.74,23,31.66,23z M31.66,22.7c-0.05,0-0.1,0.04-0.11,0.09
							c-0.01,0.06,0.02,0.12,0.08,0.14c0.06,0.01,0.12-0.02,0.14-0.08c0.01-0.06-0.02-0.12-0.08-0.14
							C31.67,22.71,31.67,22.7,31.66,22.7z"/>
					</g>
				</g>
			</g>
		</g>
		<g>
			<g>
				<g>
					<g>
						<path class="st1" d="M31.84,23.74c-0.01,0-0.03,0-0.04,0c-0.09-0.02-0.15-0.12-0.13-0.21c0.02-0.09,0.12-0.15,0.21-0.13
							c0.09,0.02,0.15,0.12,0.13,0.21C31.99,23.68,31.92,23.74,31.84,23.74z M31.84,23.44c-0.05,0-0.1,0.04-0.11,0.09
							c-0.01,0.06,0.02,0.12,0.08,0.14c0.06,0.01,0.12-0.02,0.14-0.08c0.01-0.06-0.02-0.12-0.08-0.14
							C31.86,23.45,31.85,23.44,31.84,23.44z"/>
					</g>
				</g>
			</g>
		</g>
		<g>
			<g>
				<g>
					<g>
						<path class="st1" d="M27.11,24.69c-0.01,0-0.03,0-0.04,0c-0.09-0.02-0.15-0.12-0.13-0.21c0.02-0.09,0.12-0.15,0.21-0.13
							c0.09,0.02,0.15,0.12,0.13,0.21C27.27,24.64,27.19,24.69,27.11,24.69z M27.11,24.4c-0.05,0-0.1,0.04-0.11,0.09
							c-0.01,0.06,0.02,0.12,0.08,0.14c0.01,0,0.02,0,0.03,0c0.05,0,0.1-0.04,0.11-0.09c0.01-0.06-0.02-0.12-0.08-0.14
							C27.13,24.4,27.12,24.4,27.11,24.4z"/>
					</g>
				</g>
			</g>
		</g>
		<g>
			<g>
				<g>
					<g>
						<path class="st1" d="M30.57,26.49c-0.01,0-0.03,0-0.04,0c-0.09-0.02-0.15-0.12-0.13-0.21c0.02-0.08,0.09-0.14,0.17-0.14
							c0.01,0,0.03,0,0.04,0c0.09,0.02,0.15,0.12,0.13,0.21C30.72,26.44,30.65,26.49,30.57,26.49z M30.57,26.2
							c-0.05,0-0.1,0.04-0.11,0.09c-0.01,0.06,0.02,0.12,0.08,0.14c0.06,0.01,0.12-0.02,0.14-0.08c0.01-0.06-0.02-0.12-0.08-0.14
							C30.59,26.2,30.58,26.2,30.57,26.2z"/>
					</g>
				</g>
			</g>
		</g>
		<g>
			<g>
				<g>
					<g>
						<path class="st1" d="M31.56,28.6c-0.01,0-0.03,0-0.04,0c-0.09-0.02-0.15-0.12-0.13-0.21c0.02-0.08,0.09-0.14,0.17-0.14
							c0.01,0,0.03,0,0.04,0c0.09,0.02,0.15,0.12,0.13,0.21C31.71,28.55,31.64,28.6,31.56,28.6z M31.56,28.31
							c-0.05,0-0.1,0.04-0.11,0.09c-0.01,0.06,0.02,0.12,0.08,0.14c0.01,0,0.02,0,0.03,0c0.05,0,0.1-0.04,0.11-0.09
							c0.01-0.06-0.02-0.12-0.08-0.14C31.58,28.31,31.57,28.31,31.56,28.31z"/>
					</g>
				</g>
			</g>
		</g>
		<g>
			<g>
				<g>
					<g>
						<path class="st1" d="M29.95,23.81c-0.01,0-0.03,0-0.04,0c-0.09-0.02-0.15-0.12-0.13-0.21c0.02-0.08,0.09-0.14,0.17-0.14
							c0.01,0,0.03,0,0.04,0c0.09,0.02,0.15,0.12,0.13,0.21C30.1,23.75,30.03,23.81,29.95,23.81z M29.95,23.51
							c-0.05,0-0.1,0.04-0.11,0.09c-0.01,0.06,0.02,0.12,0.08,0.14c0.06,0.02,0.12-0.02,0.14-0.08c0.01-0.06-0.02-0.12-0.08-0.14
							C29.97,23.52,29.96,23.51,29.95,23.51z"/>
					</g>
				</g>
			</g>
		</g>
		<g>
			<g>
				<g>
					<g>
						<path class="st1" d="M29.04,25.36c-0.01,0-0.03,0-0.04,0c-0.09-0.02-0.15-0.12-0.13-0.21c0.02-0.08,0.09-0.14,0.17-0.14
							c0.01,0,0.03,0,0.04,0c0.09,0.02,0.15,0.12,0.13,0.21C29.2,25.3,29.13,25.36,29.04,25.36z M29.04,25.07
							c-0.05,0-0.1,0.04-0.11,0.09c-0.01,0.06,0.02,0.12,0.08,0.14c0.06,0.01,0.12-0.02,0.14-0.08c0.01-0.06-0.02-0.12-0.08-0.14
							C29.06,25.07,29.05,25.07,29.04,25.07z"/>
					</g>
				</g>
			</g>
		</g>
		<g>
			<g>
				<g>
					<g>
						<path class="st1" d="M30.65,28.71c-0.01,0-0.03,0-0.04,0c-0.09-0.02-0.15-0.12-0.13-0.21c0.02-0.08,0.09-0.14,0.17-0.14
							c0.01,0,0.03,0,0.04,0c0.09,0.02,0.15,0.12,0.13,0.21C30.8,28.65,30.73,28.71,30.65,28.71z M30.65,28.42
							c-0.05,0-0.1,0.04-0.11,0.09c-0.01,0.06,0.02,0.12,0.08,0.14c0.01,0,0.02,0,0.03,0c0.05,0,0.1-0.04,0.11-0.09
							c0.01-0.06-0.02-0.12-0.08-0.14C30.66,28.42,30.65,28.42,30.65,28.42z"/>
					</g>
				</g>
			</g>
		</g>
		<g>
			<g>
				<g>
					<g>
						<path class="st1" d="M33.64,24.55c-0.01,0-0.03,0-0.04,0c-0.09-0.02-0.15-0.12-0.13-0.21c0.02-0.08,0.09-0.14,0.17-0.14
							c0.01,0,0.03,0,0.04,0c0.09,0.02,0.15,0.12,0.13,0.21C33.79,24.49,33.72,24.55,33.64,24.55z M33.64,24.26
							c-0.05,0-0.1,0.04-0.11,0.09c-0.01,0.06,0.02,0.12,0.08,0.14c0.06,0.02,0.12-0.02,0.14-0.08c0.01-0.06-0.02-0.12-0.08-0.14
							C33.66,24.26,33.65,24.26,33.64,24.26z"/>
					</g>
				</g>
			</g>
		</g>
		<g>
			<g>
				<g>
					<g>
						<path class="st1" d="M35.6,25.99c-0.01,0-0.03,0-0.04,0c-0.09-0.02-0.15-0.12-0.13-0.21c0.02-0.08,0.09-0.14,0.17-0.14
							c0.01,0,0.03,0,0.04,0c0.09,0.02,0.15,0.12,0.13,0.21C35.76,25.94,35.69,25.99,35.6,25.99z M35.6,25.7
							c-0.05,0-0.1,0.04-0.11,0.09c-0.01,0.06,0.02,0.12,0.08,0.14c0.06,0.02,0.12-0.02,0.14-0.08c0.01-0.06-0.02-0.12-0.08-0.14
							C35.62,25.7,35.61,25.7,35.6,25.7z"/>
					</g>
				</g>
			</g>
		</g>
		<g>
			<g>
				<g>
					<g>
						<path class="st1" d="M34.41,25.33c-0.01,0-0.03,0-0.04,0c-0.09-0.02-0.15-0.12-0.13-0.21c0.02-0.08,0.09-0.14,0.17-0.14
							c0.01,0,0.03,0,0.04,0c0.09,0.02,0.15,0.12,0.13,0.21C34.57,25.28,34.5,25.33,34.41,25.33z M34.41,25.04
							c-0.05,0-0.1,0.04-0.11,0.09c-0.01,0.06,0.02,0.12,0.08,0.14c0.01,0,0.02,0,0.03,0c0.05,0,0.1-0.04,0.11-0.09
							c0.01-0.06-0.02-0.12-0.08-0.14C34.43,25.04,34.42,25.04,34.41,25.04z"/>
					</g>
				</g>
			</g>
		</g>
		<g>
			<g>
				<g>
					<g>
						<path class="st1" d="M31.94,24.48c-0.01,0-0.03,0-0.04,0c-0.09-0.02-0.15-0.12-0.13-0.21c0.02-0.08,0.09-0.14,0.17-0.14
							c0.01,0,0.03,0,0.04,0c0.09,0.02,0.15,0.12,0.13,0.21C32.09,24.43,32.02,24.48,31.94,24.48z M31.94,24.19
							c-0.05,0-0.1,0.04-0.11,0.09c-0.01,0.06,0.02,0.12,0.08,0.14c0.06,0.02,0.12-0.02,0.14-0.08c0.01-0.06-0.02-0.12-0.08-0.14
							C31.95,24.19,31.95,24.19,31.94,24.19z"/>
					</g>
				</g>
			</g>
		</g>
		<g>
			<g>
				<g>
					<g>
						<path class="st1" d="M29.88,26.4c-0.01,0-0.03,0-0.04,0c-0.09-0.02-0.15-0.12-0.13-0.21c0.02-0.08,0.09-0.14,0.17-0.14
							c0.01,0,0.03,0,0.04,0c0.09,0.02,0.15,0.12,0.13,0.21C30.03,26.35,29.96,26.4,29.88,26.4z M29.88,26.11
							c-0.05,0-0.1,0.04-0.11,0.09c-0.01,0.06,0.02,0.12,0.08,0.14c0.06,0.01,0.12-0.02,0.14-0.08c0.01-0.06-0.02-0.12-0.08-0.14
							C29.9,26.11,29.89,26.11,29.88,26.11z"/>
					</g>
				</g>
			</g>
		</g>
		<g>
			<g>
				<g>
					<g>
						<path class="st1" d="M30.75,27.26c-0.01,0-0.03,0-0.04,0c-0.09-0.02-0.15-0.12-0.13-0.21c0.02-0.08,0.09-0.14,0.17-0.14
							c0.01,0,0.03,0,0.04,0c0.09,0.02,0.15,0.12,0.13,0.21C30.9,27.21,30.83,27.26,30.75,27.26z M30.75,26.97
							c-0.05,0-0.1,0.04-0.11,0.09c-0.01,0.06,0.02,0.12,0.08,0.14c0.06,0.01,0.12-0.02,0.14-0.08c0.01-0.06-0.02-0.12-0.08-0.14
							C30.77,26.97,30.76,26.97,30.75,26.97z"/>
					</g>
				</g>
			</g>
		</g>
		<g>
			<g>
				<g>
					<g>
						<path class="st1" d="M27.03,26.29c-0.01,0-0.03,0-0.04,0c-0.09-0.02-0.15-0.12-0.13-0.21c0.02-0.09,0.12-0.15,0.21-0.13
							c0.09,0.02,0.15,0.12,0.13,0.21C27.18,26.23,27.11,26.29,27.03,26.29z M27.03,26c-0.05,0-0.1,0.04-0.11,0.09
							c-0.01,0.06,0.02,0.12,0.08,0.14c0.01,0,0.02,0,0.03,0c0.05,0,0.1-0.04,0.11-0.09c0.01-0.06-0.02-0.12-0.08-0.14
							C27.05,26,27.04,26,27.03,26z"/>
					</g>
				</g>
			</g>
		</g>
		<g>
			<g>
				<g>
					<g>
						<path class="st1" d="M28.21,27.42c-0.01,0-0.03,0-0.04,0c-0.09-0.02-0.15-0.12-0.13-0.21c0.02-0.09,0.12-0.15,0.21-0.13
							c0.09,0.02,0.15,0.12,0.13,0.21C28.36,27.37,28.29,27.42,28.21,27.42z M28.21,27.13c-0.05,0-0.1,0.04-0.11,0.09
							c-0.01,0.06,0.02,0.12,0.08,0.14c0.06,0.02,0.12-0.02,0.14-0.08c0.01-0.06-0.02-0.12-0.08-0.14
							C28.23,27.13,28.22,27.13,28.21,27.13z"/>
					</g>
				</g>
			</g>
		</g>
		<g>
			<g>
				<g>
					<g>
						<path class="st1" d="M27.4,28.52c-0.01,0-0.03,0-0.04-0.01c-0.09-0.02-0.15-0.12-0.13-0.21c0.02-0.08,0.09-0.14,0.17-0.14
							c0.01,0,0.03,0,0.04,0c0.09,0.02,0.15,0.12,0.13,0.21C27.56,28.46,27.49,28.52,27.4,28.52z M27.4,28.23
							c-0.05,0-0.1,0.04-0.11,0.09c-0.01,0.06,0.02,0.12,0.08,0.14c0.06,0.02,0.12-0.02,0.14-0.08c0.01-0.06-0.02-0.12-0.08-0.14
							C27.42,28.23,27.41,28.23,27.4,28.23z"/>
					</g>
				</g>
			</g>
		</g>
		<g>
			<g>
				<g>
					<g>
						<path class="st1" d="M26.88,27.51c-0.01,0-0.03,0-0.04-0.01c-0.09-0.02-0.15-0.12-0.13-0.21c0.02-0.08,0.09-0.14,0.17-0.14
							c0.01,0,0.03,0,0.04,0.01c0.09,0.02,0.15,0.12,0.13,0.21C27.04,27.45,26.96,27.51,26.88,27.51z M26.88,27.22
							c-0.05,0-0.1,0.04-0.11,0.09c-0.01,0.06,0.02,0.12,0.08,0.14c0.06,0.01,0.12-0.02,0.14-0.08c0.01-0.06-0.02-0.12-0.08-0.14
							C26.9,27.22,26.89,27.22,26.88,27.22z"/>
					</g>
				</g>
			</g>
		</g>
		<g>
			<g>
				<g>
					<g>
						<path class="st1" d="M29.65,28.09c-0.01,0-0.03,0-0.04,0c-0.09-0.02-0.15-0.12-0.13-0.21c0.02-0.08,0.09-0.14,0.17-0.14
							c0.01,0,0.03,0,0.04,0c0.09,0.02,0.15,0.12,0.13,0.21C29.81,28.03,29.74,28.09,29.65,28.09z M29.65,27.79
							c-0.05,0-0.1,0.04-0.11,0.09c-0.01,0.06,0.02,0.12,0.08,0.14c0.06,0.02,0.12-0.02,0.14-0.08c0.01-0.06-0.02-0.12-0.08-0.14
							C29.67,27.8,29.66,27.79,29.65,27.79z"/>
					</g>
				</g>
			</g>
		</g>
		<g>
			<g>
				<g>
					<g>
						<path class="st1" d="M31.34,26.95c-0.01,0-0.03,0-0.04,0c-0.09-0.02-0.15-0.12-0.13-0.21c0.02-0.09,0.12-0.15,0.21-0.13
							c0.09,0.02,0.15,0.12,0.13,0.21C31.5,26.89,31.43,26.95,31.34,26.95z M31.34,26.66c-0.05,0-0.1,0.04-0.11,0.09
							c-0.01,0.06,0.02,0.12,0.08,0.14c0.06,0.01,0.12-0.02,0.14-0.08c0.01-0.06-0.02-0.12-0.08-0.14
							C31.36,26.66,31.35,26.66,31.34,26.66z"/>
					</g>
				</g>
			</g>
		</g>
		<g>
			<g>
				<g>
					<g>
						<path class="st1" d="M33.54,23.59c-0.01,0-0.03,0-0.04,0c-0.09-0.02-0.15-0.12-0.13-0.21c0.02-0.08,0.09-0.14,0.17-0.14
							c0.01,0,0.03,0,0.04,0c0.09,0.02,0.15,0.12,0.13,0.21C33.69,23.54,33.62,23.59,33.54,23.59z M33.54,23.3
							c-0.05,0-0.1,0.04-0.11,0.09c-0.01,0.06,0.02,0.12,0.08,0.14c0.06,0.02,0.12-0.02,0.14-0.08c0.01-0.06-0.02-0.12-0.08-0.14
							C33.56,23.3,33.55,23.3,33.54,23.3z"/>
					</g>
				</g>
			</g>
		</g>
		<g>
			<g>
				<g>
					<g>
						<path class="st1" d="M33.26,22.65c-0.01,0-0.03,0-0.04,0c-0.09-0.02-0.15-0.12-0.13-0.21c0.02-0.08,0.09-0.14,0.17-0.14
							c0.01,0,0.03,0,0.04,0c0.09,0.02,0.15,0.12,0.13,0.21C33.41,22.6,33.34,22.65,33.26,22.65z M33.26,22.36
							c-0.05,0-0.1,0.04-0.11,0.09c-0.01,0.06,0.02,0.12,0.08,0.14c0.06,0.01,0.12-0.02,0.14-0.08c0.01-0.06-0.02-0.12-0.08-0.14
							C33.27,22.36,33.27,22.36,33.26,22.36z"/>
					</g>
				</g>
			</g>
		</g>
		<g>
			<g>
				<g>
					<g>
						<path class="st1" d="M34.41,22.95c-0.01,0-0.03,0-0.04,0c-0.09-0.02-0.15-0.12-0.13-0.21c0.02-0.08,0.09-0.14,0.17-0.14
							c0.01,0,0.03,0,0.04,0c0.09,0.02,0.15,0.12,0.13,0.21C34.56,22.9,34.49,22.95,34.41,22.95z M34.41,22.66
							c-0.05,0-0.1,0.04-0.11,0.09c-0.01,0.06,0.02,0.12,0.08,0.14c0.01,0,0.02,0,0.03,0c0.05,0,0.1-0.04,0.11-0.09
							c0.01-0.06-0.02-0.12-0.08-0.14C34.43,22.66,34.42,22.66,34.41,22.66z"/>
					</g>
				</g>
			</g>
		</g>
		<g>
			<g>
				<g>
					<g>
						<path class="st1" d="M34.95,24.03c-0.01,0-0.03,0-0.04,0c-0.09-0.02-0.15-0.12-0.13-0.21c0.02-0.08,0.09-0.14,0.17-0.14
							c0.01,0,0.03,0,0.04,0c0.09,0.02,0.15,0.12,0.13,0.21C35.1,23.98,35.03,24.03,34.95,24.03z M34.95,23.74
							c-0.05,0-0.1,0.04-0.11,0.09c-0.01,0.06,0.02,0.12,0.08,0.14c0.01,0,0.02,0,0.03,0c0.05,0,0.1-0.04,0.11-0.09
							c0.01-0.06-0.02-0.12-0.08-0.14C34.96,23.74,34.96,23.74,34.95,23.74z"/>
					</g>
				</g>
			</g>
		</g>
		<g>
			<g>
				<g>
					<g>
						<path class="st1" d="M33.12,25.36c-0.01,0-0.03,0-0.04,0c-0.09-0.02-0.15-0.12-0.13-0.21c0.02-0.08,0.09-0.14,0.17-0.14
							c0.01,0,0.03,0,0.04,0c0.09,0.02,0.15,0.12,0.13,0.21C33.27,25.3,33.2,25.36,33.12,25.36z M33.12,25.07
							c-0.05,0-0.1,0.04-0.11,0.09c-0.01,0.06,0.02,0.12,0.08,0.14c0.06,0.02,0.12-0.02,0.14-0.08c0.01-0.06-0.02-0.12-0.08-0.14
							C33.14,25.07,33.13,25.07,33.12,25.07z"/>
					</g>
				</g>
			</g>
		</g>
		<g>
			<g>
				<g>
					<g>
						<path class="st1" d="M32.79,24.54c-0.01,0-0.03,0-0.04,0c-0.09-0.02-0.15-0.12-0.13-0.21c0.02-0.08,0.09-0.14,0.17-0.14
							c0.01,0,0.03,0,0.04,0c0.09,0.02,0.15,0.12,0.13,0.21C32.94,24.48,32.87,24.54,32.79,24.54z M32.79,24.25
							c-0.05,0-0.1,0.04-0.11,0.09c-0.01,0.06,0.02,0.12,0.08,0.14c0.06,0.02,0.12-0.02,0.14-0.08c0.01-0.06-0.02-0.12-0.08-0.14
							C32.81,24.25,32.8,24.25,32.79,24.25z"/>
					</g>
				</g>
			</g>
		</g>
		<g>
			<g>
				<g>
					<g>
						<path class="st1" d="M30.5,24.95c-0.01,0-0.03,0-0.04,0c-0.09-0.02-0.15-0.12-0.13-0.21c0.02-0.08,0.09-0.14,0.17-0.14
							c0.01,0,0.03,0,0.04,0c0.09,0.02,0.15,0.12,0.13,0.21C30.65,24.9,30.58,24.95,30.5,24.95z M30.5,24.66
							c-0.05,0-0.1,0.04-0.11,0.09c-0.01,0.06,0.02,0.12,0.08,0.14c0.06,0.02,0.12-0.02,0.14-0.08c0.01-0.06-0.02-0.12-0.08-0.14
							C30.52,24.66,30.51,24.66,30.5,24.66z"/>
					</g>
				</g>
			</g>
		</g>
		<g>
			<g>
				<g>
					<g>
						<path class="st1" d="M32.93,26.69c-0.01,0-0.03,0-0.04,0c-0.09-0.02-0.15-0.12-0.13-0.21c0.02-0.08,0.09-0.14,0.17-0.14
							c0.01,0,0.03,0,0.04,0c0.09,0.02,0.15,0.12,0.13,0.21C33.08,26.63,33.01,26.69,32.93,26.69z M32.93,26.4
							c-0.05,0-0.1,0.04-0.11,0.09c-0.01,0.06,0.02,0.12,0.08,0.14c0.06,0.01,0.12-0.02,0.14-0.08c0.01-0.06-0.02-0.12-0.08-0.14
							C32.94,26.4,32.94,26.4,32.93,26.4z"/>
					</g>
				</g>
			</g>
		</g>
		<g>
			<g>
				<g>
					<g>
						<path class="st1" d="M32.13,27.29c-0.03,0-0.07,0-0.1-0.01c-0.11-0.03-0.21-0.1-0.27-0.19c-0.06-0.1-0.08-0.21-0.05-0.32
							c0.05-0.23,0.29-0.37,0.52-0.32c0.11,0.03,0.21,0.1,0.27,0.19c0.06,0.1,0.08,0.21,0.05,0.32
							C32.5,27.16,32.33,27.29,32.13,27.29z M32.13,26.59c-0.13,0-0.24,0.09-0.27,0.21c-0.02,0.07,0,0.15,0.03,0.21
							c0.04,0.06,0.1,0.11,0.17,0.12c0.15,0.03,0.3-0.06,0.33-0.21c0.02-0.07,0-0.15-0.03-0.21c-0.04-0.06-0.1-0.11-0.17-0.12
							C32.18,26.59,32.15,26.59,32.13,26.59z"/>
					</g>
				</g>
			</g>
		</g>
		<g>
			<g>
				<g>
					<g>
						<path class="st1" d="M28.91,24.89c-0.03,0-0.06,0-0.09-0.01c-0.1-0.02-0.18-0.08-0.23-0.17c-0.05-0.09-0.07-0.19-0.05-0.28
							c0.05-0.2,0.25-0.33,0.45-0.28c0.1,0.02,0.18,0.08,0.23,0.17c0.05,0.09,0.07,0.19,0.05,0.29
							C29.24,24.77,29.08,24.89,28.91,24.89z M28.91,24.27c-0.11,0-0.21,0.08-0.24,0.19c-0.02,0.06,0,0.13,0.03,0.18
							c0.03,0.06,0.09,0.09,0.15,0.11c0.13,0.03,0.26-0.05,0.29-0.18c0.02-0.06,0-0.13-0.03-0.18c-0.03-0.06-0.09-0.09-0.15-0.11
							C28.95,24.27,28.93,24.27,28.91,24.27z"/>
					</g>
				</g>
			</g>
		</g>
		<g>
			<g>
				<g>
					<g>
						<path class="st1" d="M30.55,25.87c-0.03,0-0.06,0-0.09-0.01c-0.1-0.02-0.18-0.08-0.23-0.17s-0.07-0.19-0.05-0.28
							c0.05-0.2,0.25-0.33,0.45-0.28c0.1,0.02,0.18,0.08,0.23,0.17c0.05,0.09,0.07,0.19,0.05,0.29
							C30.88,25.75,30.73,25.87,30.55,25.87z M30.55,25.25c-0.11,0-0.21,0.08-0.24,0.19c-0.02,0.06,0,0.13,0.03,0.18
							c0.03,0.05,0.09,0.09,0.15,0.11c0.13,0.03,0.26-0.05,0.29-0.18c0.02-0.06,0-0.13-0.03-0.18c-0.03-0.06-0.09-0.09-0.15-0.11
							C30.59,25.25,30.57,25.25,30.55,25.25z"/>
					</g>
				</g>
			</g>
		</g>
		<g>
			<g>
				<g>
					<g>
						<path class="st1" d="M30.6,27.99c-0.03,0-0.06,0-0.09-0.01c-0.1-0.02-0.18-0.08-0.23-0.17c-0.05-0.09-0.07-0.19-0.05-0.28
							c0.05-0.2,0.25-0.33,0.45-0.28c0.1,0.02,0.18,0.08,0.23,0.17c0.05,0.09,0.07,0.19,0.05,0.29
							C30.93,27.88,30.78,27.99,30.6,27.99z M30.6,27.37c-0.11,0-0.21,0.08-0.24,0.19c-0.02,0.06,0,0.13,0.03,0.18
							c0.03,0.06,0.09,0.09,0.15,0.11c0.13,0.03,0.26-0.05,0.29-0.18c0.02-0.06,0-0.13-0.03-0.18c-0.03-0.05-0.09-0.09-0.15-0.11
							C30.64,27.38,30.62,27.37,30.6,27.37z"/>
					</g>
				</g>
			</g>
		</g>
		<g>
			<g>
				<g>
					<g>
						<path class="st1" d="M27.95,26.38c-0.03,0-0.06,0-0.09-0.01c-0.1-0.02-0.18-0.08-0.23-0.17c-0.05-0.09-0.07-0.19-0.05-0.28
							c0.05-0.2,0.25-0.33,0.45-0.28c0.1,0.02,0.18,0.08,0.23,0.17c0.05,0.09,0.07,0.19,0.05,0.29
							C28.27,26.26,28.12,26.38,27.95,26.38z M27.95,25.76c-0.11,0-0.21,0.08-0.24,0.19c-0.02,0.06,0,0.13,0.03,0.18
							c0.03,0.05,0.09,0.09,0.15,0.11c0.13,0.03,0.26-0.05,0.29-0.18c0.02-0.06,0-0.13-0.03-0.18c-0.03-0.06-0.09-0.09-0.15-0.11
							C27.99,25.77,27.97,25.76,27.95,25.76z"/>
					</g>
				</g>
			</g>
		</g>
		<g>
			<g>
				<g>
					<g>
						<path class="st1" d="M27.59,27.23c-0.03,0-0.06,0-0.09-0.01c-0.1-0.02-0.18-0.08-0.23-0.17c-0.05-0.09-0.07-0.19-0.05-0.28
							c0.05-0.2,0.25-0.33,0.45-0.28c0.1,0.02,0.18,0.08,0.23,0.17c0.05,0.09,0.07,0.19,0.05,0.28
							C27.91,27.11,27.76,27.23,27.59,27.23z M27.59,26.61c-0.11,0-0.21,0.08-0.24,0.19c-0.02,0.06-0.01,0.13,0.03,0.18
							c0.03,0.06,0.09,0.09,0.15,0.11c0.13,0.03,0.26-0.05,0.29-0.18c0.02-0.06,0.01-0.13-0.03-0.18c-0.03-0.05-0.09-0.09-0.15-0.11
							C27.63,26.61,27.61,26.61,27.59,26.61z"/>
					</g>
				</g>
			</g>
		</g>
		<g>
			<g>
				<g>
					<g>
						<path class="st1" d="M28.61,28.51c-0.03,0-0.06,0-0.09-0.01c-0.1-0.02-0.18-0.08-0.23-0.17c-0.05-0.09-0.07-0.19-0.05-0.29
							c0.05-0.2,0.25-0.33,0.45-0.28c0.1,0.02,0.18,0.08,0.23,0.17c0.05,0.09,0.07,0.19,0.05,0.28
							C28.93,28.39,28.78,28.51,28.61,28.51z M28.61,27.89c-0.11,0-0.21,0.08-0.24,0.19c-0.02,0.06-0.01,0.13,0.03,0.18
							c0.03,0.05,0.09,0.09,0.15,0.11c0.13,0.03,0.26-0.05,0.29-0.18c0.02-0.06,0.01-0.13-0.03-0.18c-0.03-0.06-0.09-0.09-0.15-0.11
							C28.65,27.89,28.63,27.89,28.61,27.89z"/>
					</g>
				</g>
			</g>
		</g>
		<g>
			<g>
				<g>
					<g>
						<path class="st1" d="M28.91,29.39c-0.03,0-0.06,0-0.09-0.01c-0.1-0.02-0.18-0.08-0.23-0.17c-0.05-0.09-0.07-0.19-0.05-0.28
							c0.05-0.2,0.25-0.33,0.45-0.28c0.1,0.02,0.18,0.08,0.23,0.17c0.05,0.09,0.07,0.19,0.05,0.28
							C29.24,29.27,29.09,29.39,28.91,29.39z M28.91,28.77c-0.11,0-0.21,0.08-0.24,0.19c-0.02,0.06-0.01,0.13,0.03,0.18
							c0.03,0.05,0.09,0.09,0.15,0.11c0.13,0.03,0.26-0.05,0.29-0.18c0.02-0.06,0.01-0.13-0.03-0.18c-0.03-0.06-0.09-0.09-0.15-0.11
							C28.95,28.77,28.93,28.77,28.91,28.77z"/>
					</g>
				</g>
			</g>
		</g>
		<g>
			<g>
				<g>
					<g>
						<path class="st1" d="M29.32,30.08c-0.03,0-0.06,0-0.09-0.01c-0.1-0.02-0.18-0.08-0.23-0.17c-0.05-0.09-0.07-0.19-0.05-0.28
							c0.05-0.2,0.25-0.33,0.45-0.28c0.1,0.02,0.18,0.08,0.23,0.17c0.05,0.09,0.07,0.19,0.05,0.28
							C29.64,29.97,29.49,30.08,29.32,30.08z M29.32,29.46c-0.11,0-0.21,0.08-0.24,0.19c-0.02,0.06,0,0.13,0.03,0.18
							c0.03,0.06,0.09,0.09,0.15,0.11c0.13,0.03,0.26-0.05,0.29-0.18c0.02-0.06,0-0.13-0.03-0.18c-0.03-0.06-0.09-0.09-0.15-0.11
							C29.35,29.47,29.33,29.46,29.32,29.46z"/>
					</g>
				</g>
			</g>
		</g>
		<g>
			<g>
				<g>
					<g>
						<path class="st1" d="M30.86,29.61c-0.03,0-0.06,0-0.09-0.01c-0.1-0.02-0.18-0.08-0.23-0.17c-0.05-0.09-0.07-0.19-0.05-0.28
							c0.05-0.2,0.25-0.33,0.45-0.28c0.1,0.02,0.18,0.08,0.23,0.17c0.05,0.09,0.07,0.19,0.05,0.28
							C31.18,29.49,31.03,29.61,30.86,29.61z M30.86,28.99c-0.11,0-0.21,0.08-0.24,0.19c-0.02,0.06-0.01,0.13,0.03,0.18
							c0.03,0.06,0.09,0.09,0.15,0.11c0.13,0.03,0.26-0.05,0.29-0.18c0.02-0.06,0.01-0.13-0.03-0.18c-0.03-0.06-0.09-0.09-0.15-0.11
							C30.9,28.99,30.88,28.99,30.86,28.99z"/>
					</g>
				</g>
			</g>
		</g>
		<g>
			<g>
				<g>
					<g>
						<path class="st1" d="M29.37,27.82c-0.03,0-0.06,0-0.09-0.01c-0.1-0.02-0.18-0.08-0.23-0.17c-0.05-0.09-0.07-0.19-0.05-0.29
							c0.05-0.2,0.25-0.33,0.45-0.28c0.1,0.02,0.18,0.08,0.23,0.17c0.05,0.09,0.07,0.19,0.05,0.28
							C29.69,27.7,29.54,27.82,29.37,27.82z M29.37,27.2c-0.11,0-0.21,0.08-0.24,0.19c-0.02,0.06,0,0.13,0.03,0.18
							c0.03,0.05,0.09,0.09,0.15,0.11c0.13,0.03,0.26-0.05,0.29-0.18c0.02-0.06,0-0.13-0.03-0.18c-0.03-0.06-0.09-0.09-0.15-0.11
							C29.4,27.2,29.38,27.2,29.37,27.2z"/>
					</g>
				</g>
			</g>
		</g>
		<g>
			<g>
				<g>
					<g>
						<path class="st1" d="M29.64,25.95c-0.03,0-0.06,0-0.09-0.01c-0.1-0.02-0.18-0.08-0.23-0.17c-0.05-0.09-0.07-0.19-0.05-0.28
							c0.05-0.2,0.25-0.33,0.45-0.28c0.1,0.02,0.18,0.08,0.23,0.17c0.05,0.09,0.07,0.19,0.05,0.29
							C29.97,25.83,29.82,25.95,29.64,25.95z M29.64,25.33c-0.11,0-0.21,0.08-0.24,0.19c-0.02,0.06,0,0.13,0.03,0.18
							c0.03,0.06,0.09,0.09,0.15,0.11c0.13,0.03,0.26-0.05,0.29-0.18c0.02-0.06,0-0.13-0.03-0.18c-0.03-0.06-0.09-0.09-0.15-0.11
							C29.68,25.33,29.66,25.33,29.64,25.33z"/>
					</g>
				</g>
			</g>
		</g>
		<g>
			<g>
				<g>
					<g>
						<path class="st1" d="M31.59,28.08c-0.03,0-0.06,0-0.09-0.01c-0.1-0.02-0.18-0.08-0.23-0.17c-0.05-0.09-0.07-0.19-0.05-0.28
							c0.05-0.2,0.25-0.33,0.45-0.28c0.1,0.02,0.18,0.08,0.23,0.17c0.05,0.09,0.07,0.19,0.05,0.28
							C31.91,27.96,31.76,28.08,31.59,28.08z M31.59,27.46c-0.11,0-0.21,0.08-0.24,0.19c-0.02,0.06,0,0.13,0.03,0.18
							c0.03,0.06,0.09,0.09,0.15,0.11c0.13,0.03,0.26-0.05,0.29-0.18c0.02-0.06,0-0.13-0.03-0.18c-0.03-0.06-0.09-0.09-0.15-0.11
							C31.62,27.46,31.6,27.46,31.59,27.46z"/>
					</g>
				</g>
			</g>
		</g>
		<g>
			<g>
				<g>
					<g>
						<path class="st1" d="M29,26.58c-0.03,0-0.06,0-0.09-0.01c-0.1-0.02-0.18-0.08-0.23-0.17c-0.05-0.09-0.07-0.19-0.05-0.28
							c0.05-0.2,0.25-0.33,0.45-0.28c0.1,0.02,0.18,0.08,0.23,0.17c0.05,0.09,0.07,0.19,0.05,0.28C29.33,26.46,29.17,26.58,29,26.58
							z M29,25.96c-0.11,0-0.21,0.08-0.24,0.19c-0.02,0.06,0,0.13,0.03,0.18c0.03,0.06,0.09,0.09,0.15,0.11
							c0.13,0.03,0.26-0.05,0.29-0.18c0.02-0.06,0-0.13-0.03-0.18c-0.03-0.06-0.09-0.09-0.15-0.11C29.04,25.96,29.02,25.96,29,25.96
							z"/>
					</g>
				</g>
			</g>
		</g>
		<g>
			<g>
				<g>
					<g>
						<path class="st1" d="M32.44,25.61c-0.03,0-0.06,0-0.09-0.01c-0.1-0.02-0.18-0.08-0.23-0.17c-0.05-0.09-0.07-0.19-0.05-0.28
							c0.05-0.2,0.25-0.33,0.45-0.28c0.1,0.02,0.18,0.08,0.23,0.17c0.05,0.09,0.07,0.19,0.05,0.29
							C32.76,25.49,32.61,25.61,32.44,25.61z M32.44,24.99c-0.11,0-0.21,0.08-0.24,0.19c-0.02,0.06,0,0.13,0.03,0.18
							c0.03,0.05,0.09,0.09,0.15,0.11c0.13,0.03,0.26-0.05,0.29-0.18c0.02-0.06,0-0.13-0.03-0.18c-0.03-0.05-0.09-0.09-0.15-0.11
							C32.47,24.99,32.46,24.99,32.44,24.99z"/>
					</g>
				</g>
			</g>
		</g>
		<g>
			<g>
				<g>
					<g>
						<path class="st1" d="M30.71,24.47c-0.03,0-0.06,0-0.09-0.01c-0.1-0.02-0.18-0.08-0.23-0.17c-0.05-0.09-0.07-0.19-0.05-0.29
							c0.05-0.2,0.25-0.33,0.45-0.28c0.1,0.02,0.18,0.08,0.23,0.17c0.05,0.09,0.07,0.19,0.05,0.28
							C31.04,24.35,30.89,24.47,30.71,24.47z M30.71,23.85c-0.11,0-0.21,0.08-0.24,0.19c-0.02,0.06-0.01,0.13,0.03,0.18
							c0.03,0.06,0.09,0.09,0.15,0.11c0.13,0.03,0.26-0.05,0.29-0.18c0.02-0.06,0.01-0.13-0.03-0.18c-0.03-0.05-0.09-0.09-0.15-0.11
							C30.75,23.85,30.73,23.85,30.71,23.85z"/>
					</g>
				</g>
			</g>
		</g>
		<g>
			<g>
				<g>
					<g>
						<path class="st1" d="M31.33,25.36c-0.03,0-0.06,0-0.09-0.01c-0.1-0.02-0.18-0.08-0.23-0.17c-0.05-0.09-0.07-0.19-0.05-0.29
							c0.05-0.2,0.25-0.33,0.45-0.28c0.1,0.02,0.18,0.08,0.23,0.17c0.05,0.09,0.07,0.19,0.05,0.28
							C31.66,25.24,31.5,25.36,31.33,25.36z M31.33,24.74c-0.11,0-0.21,0.08-0.24,0.19c-0.02,0.06,0,0.13,0.03,0.18
							c0.03,0.06,0.09,0.09,0.15,0.11c0.13,0.03,0.26-0.05,0.29-0.18c0.02-0.06,0-0.13-0.03-0.18c-0.03-0.06-0.09-0.09-0.15-0.11
							C31.37,24.74,31.35,24.74,31.33,24.74z"/>
					</g>
				</g>
			</g>
		</g>
		<g>
			<g>
				<g>
					<g>
						<path class="st1" d="M31.37,26.41c-0.03,0-0.06,0-0.09-0.01c-0.1-0.02-0.18-0.08-0.23-0.17C31,26.15,30.98,26.05,31,25.95
							c0.05-0.2,0.25-0.33,0.45-0.28c0.1,0.02,0.18,0.08,0.23,0.17c0.05,0.09,0.07,0.19,0.05,0.28
							C31.7,26.3,31.55,26.41,31.37,26.41z M31.37,25.79c-0.11,0-0.21,0.08-0.24,0.19c-0.02,0.06,0,0.13,0.03,0.18
							c0.03,0.06,0.09,0.09,0.15,0.11c0.13,0.03,0.26-0.05,0.29-0.18c0.02-0.06,0-0.13-0.03-0.18c-0.03-0.06-0.09-0.09-0.15-0.11
							C31.41,25.8,31.39,25.79,31.37,25.79z"/>
					</g>
				</g>
			</g>
		</g>
		<g>
			<g>
				<g>
					<g>
						<path class="st1" d="M24.25,28.87c-0.03,0-0.06,0-0.09-0.01c-0.1-0.02-0.18-0.08-0.23-0.17c-0.05-0.09-0.07-0.19-0.05-0.28
							c0.05-0.2,0.25-0.33,0.45-0.28c0.1,0.02,0.18,0.08,0.23,0.17s0.07,0.19,0.05,0.28C24.57,28.75,24.42,28.87,24.25,28.87z
							 M24.25,28.25c-0.11,0-0.21,0.08-0.24,0.19c-0.02,0.06,0,0.13,0.03,0.18c0.03,0.06,0.09,0.09,0.15,0.11
							c0.13,0.03,0.26-0.05,0.29-0.18c0.02-0.06,0-0.13-0.03-0.18c-0.03-0.06-0.09-0.09-0.15-0.11
							C24.29,28.25,24.27,28.25,24.25,28.25z"/>
					</g>
				</g>
			</g>
		</g>
		<g>
			<g>
				<g>
					<g>
						<path class="st1" d="M26.05,30.21c-0.03,0-0.06,0-0.09-0.01c-0.1-0.02-0.18-0.08-0.23-0.17c-0.05-0.09-0.07-0.19-0.05-0.28
							c0.05-0.2,0.25-0.33,0.45-0.28c0.1,0.02,0.18,0.08,0.23,0.17c0.05,0.09,0.07,0.19,0.05,0.29
							C26.38,30.09,26.23,30.21,26.05,30.21z M26.05,29.59c-0.11,0-0.21,0.08-0.24,0.19c-0.02,0.06-0.01,0.13,0.03,0.18
							c0.03,0.06,0.09,0.09,0.15,0.11c0.13,0.03,0.26-0.05,0.29-0.18c0.02-0.06,0.01-0.13-0.03-0.18c-0.03-0.05-0.09-0.09-0.15-0.11
							C26.09,29.59,26.07,29.59,26.05,29.59z"/>
					</g>
				</g>
			</g>
		</g>
		<g>
			<g>
				<g>
					<g>
						<path class="st1" d="M26.96,30.87c-0.03,0-0.06,0-0.09-0.01c-0.1-0.02-0.18-0.08-0.23-0.17c-0.05-0.09-0.07-0.19-0.05-0.28
							c0.05-0.2,0.25-0.33,0.45-0.28c0.1,0.02,0.18,0.08,0.23,0.17c0.05,0.09,0.07,0.19,0.05,0.28
							C27.28,30.75,27.13,30.87,26.96,30.87z M26.96,30.25c-0.11,0-0.21,0.08-0.24,0.19c-0.02,0.06-0.01,0.13,0.03,0.18
							c0.03,0.05,0.09,0.09,0.15,0.11c0.13,0.03,0.26-0.05,0.29-0.18c0.02-0.06,0.01-0.13-0.03-0.18c-0.03-0.06-0.09-0.09-0.15-0.11
							C27,30.25,26.98,30.25,26.96,30.25z"/>
					</g>
				</g>
			</g>
		</g>
		<g>
			<g>
				<g>
					<g>
						<path class="st1" d="M27.36,29.66c-0.03,0-0.06,0-0.09-0.01c-0.1-0.02-0.18-0.08-0.23-0.17c-0.05-0.09-0.07-0.19-0.05-0.29
							c0.05-0.2,0.25-0.33,0.45-0.28c0.1,0.02,0.18,0.08,0.23,0.17c0.05,0.09,0.07,0.19,0.05,0.28
							C27.69,29.54,27.53,29.66,27.36,29.66z M27.36,29.04c-0.11,0-0.21,0.08-0.24,0.19c-0.02,0.06,0,0.13,0.03,0.18
							c0.03,0.05,0.09,0.09,0.15,0.11c0.13,0.03,0.26-0.05,0.29-0.18c0.02-0.06,0-0.13-0.03-0.18c-0.03-0.06-0.09-0.09-0.15-0.11
							C27.4,29.05,27.38,29.04,27.36,29.04z"/>
					</g>
				</g>
			</g>
		</g>
		<g>
			<g>
				<g>
					<g>
						<path class="st1" d="M28.21,30.79c-0.03,0-0.06,0-0.09-0.01c-0.1-0.02-0.18-0.08-0.23-0.17c-0.05-0.09-0.07-0.19-0.05-0.28
							c0.05-0.2,0.25-0.33,0.45-0.28c0.1,0.02,0.18,0.08,0.23,0.17c0.05,0.09,0.07,0.19,0.05,0.29
							C28.54,30.67,28.39,30.79,28.21,30.79z M28.21,30.17c-0.11,0-0.21,0.08-0.24,0.19c-0.02,0.06,0,0.13,0.03,0.18
							c0.03,0.06,0.09,0.09,0.15,0.11c0.13,0.03,0.26-0.05,0.29-0.18c0.02-0.06,0-0.13-0.03-0.18c-0.03-0.05-0.09-0.09-0.15-0.11
							C28.25,30.17,28.23,30.17,28.21,30.17z"/>
					</g>
				</g>
			</g>
		</g>
		<g>
			<g>
				<g>
					<g>
						<path class="st1" d="M36.1,24.04c-0.02,0-0.04,0-0.05-0.01c-0.12-0.03-0.2-0.15-0.17-0.27c0.03-0.12,0.15-0.2,0.27-0.17
							c0.12,0.03,0.2,0.15,0.17,0.27C36.3,23.96,36.21,24.04,36.1,24.04z M36.1,23.66c-0.07,0-0.13,0.05-0.14,0.11
							c-0.02,0.08,0.03,0.16,0.11,0.18c0.08,0.02,0.16-0.03,0.18-0.11c0.02-0.08-0.03-0.16-0.11-0.18
							C36.12,23.66,36.11,23.66,36.1,23.66z"/>
					</g>
				</g>
			</g>
		</g>
		<g>
			<g>
				<g>
					<g>
						<path class="st1" d="M35.32,25.38c-0.02,0-0.04,0-0.05-0.01c-0.12-0.03-0.2-0.15-0.17-0.27c0.03-0.12,0.16-0.2,0.27-0.17
							c0.12,0.03,0.2,0.15,0.17,0.27C35.51,25.31,35.42,25.38,35.32,25.38z M35.32,25c-0.07,0-0.13,0.05-0.14,0.11
							c-0.02,0.08,0.03,0.16,0.11,0.18c0.08,0.02,0.16-0.03,0.18-0.11c0.02-0.08-0.03-0.16-0.11-0.18C35.34,25,35.33,25,35.32,25z"
							/>
					</g>
				</g>
			</g>
		</g>
		<g>
			<g>
				<g>
					<g>
						<path class="st1" d="M25.21,29.6c-0.02,0-0.04,0-0.05-0.01c-0.12-0.03-0.2-0.15-0.17-0.28c0.03-0.1,0.12-0.18,0.22-0.18
							c0.02,0,0.04,0,0.05,0.01c0.12,0.03,0.2,0.15,0.17,0.27C25.4,29.53,25.31,29.6,25.21,29.6z M25.2,29.22
							c-0.07,0-0.13,0.05-0.14,0.11c-0.02,0.08,0.03,0.16,0.11,0.18c0.08,0.02,0.16-0.03,0.18-0.11c0.02-0.08-0.03-0.16-0.11-0.18
							C25.23,29.23,25.22,29.22,25.2,29.22z"/>
					</g>
				</g>
			</g>
		</g>
		<g>
			<g>
				<g>
					<g>
						<path class="st1" d="M25.61,27.46c-0.02,0-0.04,0-0.05-0.01c-0.12-0.03-0.2-0.15-0.17-0.27c0.03-0.1,0.12-0.18,0.22-0.18
							c0.02,0,0.04,0,0.05,0.01c0.12,0.03,0.2,0.15,0.17,0.27C25.81,27.39,25.72,27.46,25.61,27.46z M25.61,27.09
							c-0.07,0-0.13,0.05-0.14,0.11c-0.02,0.08,0.03,0.16,0.11,0.18c0.08,0.02,0.16-0.03,0.18-0.11c0.02-0.08-0.03-0.16-0.11-0.18
							C25.64,27.09,25.63,27.09,25.61,27.09z"/>
					</g>
				</g>
			</g>
		</g>
		<g>
			<g>
				<g>
					<g>
						<path class="st1" d="M26.56,28.58c-0.02,0-0.04,0-0.05-0.01c-0.12-0.03-0.2-0.15-0.17-0.27c0.03-0.12,0.15-0.2,0.27-0.17
							c0.12,0.03,0.2,0.15,0.17,0.27C26.76,28.51,26.67,28.58,26.56,28.58z M26.56,28.2c-0.07,0-0.13,0.05-0.14,0.11
							c-0.02,0.08,0.03,0.16,0.11,0.18c0.08,0.02,0.16-0.03,0.18-0.11c0.02-0.08-0.03-0.16-0.11-0.18
							C26.59,28.2,26.57,28.2,26.56,28.2z"/>
					</g>
				</g>
			</g>
		</g>
		<g>
			<g>
				<g>
					<g>
						<path class="st1" d="M25.66,28.79c-0.02,0-0.04,0-0.05-0.01c-0.12-0.03-0.2-0.15-0.17-0.28c0.03-0.12,0.15-0.2,0.27-0.17
							c0.12,0.03,0.2,0.15,0.17,0.27C25.86,28.72,25.77,28.79,25.66,28.79z M25.66,28.41c-0.07,0-0.13,0.05-0.14,0.11
							c-0.02,0.08,0.03,0.16,0.11,0.18c0.08,0.02,0.16-0.03,0.18-0.11c0.02-0.08-0.03-0.16-0.11-0.18
							C25.68,28.41,25.67,28.41,25.66,28.41z"/>
					</g>
				</g>
			</g>
		</g>
		<g>
			<g>
				<g>
					<g>
						<path class="st1" d="M24.25,29.78c-0.02,0-0.04,0-0.05-0.01c-0.12-0.03-0.2-0.15-0.17-0.28c0.03-0.12,0.16-0.2,0.27-0.17
							c0.12,0.03,0.2,0.15,0.17,0.27C24.45,29.71,24.35,29.78,24.25,29.78z M24.25,29.4c-0.07,0-0.13,0.05-0.14,0.11
							c-0.02,0.08,0.03,0.16,0.11,0.18c0.08,0.02,0.16-0.03,0.18-0.11c0.02-0.08-0.03-0.16-0.11-0.18
							C24.27,29.4,24.26,29.4,24.25,29.4z"/>
					</g>
				</g>
			</g>
		</g>
		<g>
			<g>
				<g>
					<g>
						<path class="st1" d="M25.81,31.52c-0.02,0-0.04,0-0.05-0.01c-0.12-0.03-0.2-0.15-0.17-0.27c0.03-0.12,0.15-0.2,0.27-0.17
							c0.12,0.03,0.2,0.15,0.17,0.27C26,31.45,25.91,31.52,25.81,31.52z M25.81,31.15c-0.07,0-0.13,0.05-0.14,0.11
							c-0.02,0.08,0.03,0.16,0.11,0.18c0.08,0.02,0.16-0.03,0.18-0.11c0.02-0.08-0.03-0.16-0.11-0.18
							C25.83,31.15,25.82,31.15,25.81,31.15z"/>
					</g>
				</g>
			</g>
		</g>
		<g>
			<g>
				<g>
					<g>
						<path class="st1" d="M33.58,26.34c-0.02,0-0.04,0-0.05-0.01c-0.12-0.03-0.2-0.15-0.17-0.27c0.02-0.1,0.12-0.18,0.22-0.18
							c0.02,0,0.04,0,0.05,0.01c0.12,0.03,0.2,0.15,0.17,0.27C33.77,26.27,33.68,26.34,33.58,26.34z M33.58,25.97
							c-0.07,0-0.13,0.05-0.14,0.11c-0.02,0.08,0.03,0.16,0.11,0.18c0.08,0.02,0.16-0.03,0.18-0.11c0.02-0.08-0.03-0.16-0.11-0.18
							C33.6,25.97,33.59,25.97,33.58,25.97z"/>
					</g>
				</g>
			</g>
		</g>
		<g>
			<g>
				<g>
					<g>
						<path class="st1" d="M31.07,22.77c-0.02,0-0.04,0-0.05-0.01c-0.12-0.03-0.2-0.15-0.17-0.27c0.03-0.1,0.12-0.18,0.22-0.18
							c0.02,0,0.04,0,0.05,0.01c0.12,0.03,0.2,0.15,0.17,0.27C31.26,22.69,31.17,22.77,31.07,22.77z M31.07,22.39
							c-0.07,0-0.13,0.05-0.14,0.11c-0.02,0.08,0.03,0.16,0.11,0.18c0.08,0.02,0.16-0.03,0.18-0.11c0.02-0.08-0.03-0.16-0.11-0.18
							C31.09,22.39,31.08,22.39,31.07,22.39z"/>
					</g>
				</g>
			</g>
		</g>
		<g>
			<g>
				<g>
					<g>
						<path class="st1" d="M28.01,23.6c-0.02,0-0.04,0-0.05-0.01c-0.12-0.03-0.2-0.15-0.17-0.27c0.03-0.12,0.15-0.2,0.27-0.17
							c0.12,0.03,0.2,0.15,0.17,0.27C28.21,23.53,28.12,23.6,28.01,23.6z M28.01,23.23c-0.07,0-0.13,0.05-0.14,0.11
							c-0.02,0.08,0.03,0.16,0.11,0.18c0.08,0.02,0.16-0.03,0.18-0.11c0.02-0.08-0.03-0.16-0.11-0.18
							C28.04,23.23,28.02,23.23,28.01,23.23z"/>
					</g>
				</g>
			</g>
		</g>
		<g>
			<g>
				<g>
					<g>
						<path class="st1" d="M29.38,22.75c-0.02,0-0.04,0-0.05-0.01c-0.12-0.03-0.2-0.15-0.17-0.27c0.03-0.12,0.16-0.2,0.27-0.17
							c0.12,0.03,0.2,0.15,0.17,0.27C29.58,22.68,29.49,22.75,29.38,22.75z M29.38,22.38c-0.07,0-0.13,0.05-0.14,0.11
							c-0.02,0.08,0.03,0.16,0.11,0.18c0.08,0.02,0.16-0.03,0.18-0.11c0.02-0.08-0.03-0.16-0.11-0.18
							C29.4,22.38,29.39,22.38,29.38,22.38z"/>
					</g>
				</g>
			</g>
		</g>
		<g>
			<g>
				<g>
					<g>
						<path class="st1" d="M29.69,24.61c-0.02,0-0.04,0-0.05-0.01c-0.12-0.03-0.2-0.15-0.17-0.27c0.02-0.1,0.12-0.18,0.22-0.18
							c0.02,0,0.04,0,0.05,0.01c0.12,0.03,0.2,0.15,0.17,0.27C29.89,24.54,29.79,24.61,29.69,24.61z M29.69,24.24
							c-0.07,0-0.13,0.05-0.14,0.11c-0.02,0.08,0.03,0.16,0.11,0.18c0.08,0.02,0.16-0.03,0.18-0.11c0.02-0.08-0.03-0.16-0.11-0.18
							C29.71,24.24,29.7,24.24,29.69,24.24z"/>
					</g>
				</g>
			</g>
		</g>
		<g>
			<g>
				<g>
					<g>
						<path class="st1" d="M26.86,25.36c-0.02,0-0.04,0-0.05-0.01c-0.12-0.03-0.2-0.15-0.17-0.27c0.03-0.12,0.15-0.2,0.27-0.17
							c0.12,0.03,0.2,0.15,0.17,0.27C27.06,25.29,26.97,25.36,26.86,25.36z M26.86,24.98c-0.07,0-0.13,0.05-0.14,0.11
							c-0.02,0.08,0.03,0.16,0.11,0.18c0.08,0.02,0.16-0.03,0.18-0.11c0.02-0.08-0.03-0.16-0.11-0.18
							C26.89,24.98,26.87,24.98,26.86,24.98z"/>
					</g>
				</g>
			</g>
		</g>
		<g>
			<g>
				<g>
					<g>
						<path class="st1" d="M23.15,27.84c-0.02,0-0.04,0-0.05-0.01c-0.12-0.03-0.2-0.15-0.17-0.27c0.03-0.12,0.15-0.2,0.27-0.17
							c0.12,0.03,0.2,0.15,0.17,0.27C23.35,27.77,23.26,27.84,23.15,27.84z M23.15,27.47c-0.07,0-0.13,0.05-0.14,0.11
							c-0.02,0.08,0.03,0.16,0.11,0.18c0.08,0.02,0.16-0.03,0.18-0.11c0.02-0.08-0.03-0.16-0.11-0.18
							C23.17,27.47,23.16,27.47,23.15,27.47z"/>
					</g>
				</g>
			</g>
		</g>
		<g>
			<g>
				<g>
					<g>
						<path class="st1" d="M24.29,27.09c-0.02,0-0.04,0-0.05-0.01c-0.12-0.03-0.2-0.15-0.17-0.27c0.03-0.12,0.16-0.2,0.27-0.17
							c0.12,0.03,0.2,0.15,0.17,0.28C24.49,27.02,24.4,27.09,24.29,27.09z M24.29,26.72c-0.07,0-0.13,0.05-0.14,0.11
							c-0.02,0.08,0.03,0.16,0.11,0.18c0.08,0.02,0.16-0.03,0.18-0.11c0.02-0.08-0.03-0.16-0.11-0.18
							C24.31,26.72,24.3,26.72,24.29,26.72z"/>
					</g>
				</g>
			</g>
		</g>
		<g>
			<g>
				<g>
					<g>
						<path class="st1" d="M24.53,27.87c-0.02,0-0.04,0-0.05-0.01c-0.12-0.03-0.2-0.15-0.17-0.27c0.03-0.12,0.16-0.2,0.27-0.17
							c0.12,0.03,0.2,0.15,0.17,0.27C24.73,27.8,24.63,27.87,24.53,27.87z M24.53,27.5c-0.07,0-0.13,0.05-0.14,0.11
							c-0.02,0.08,0.03,0.16,0.11,0.18c0.08,0.02,0.16-0.03,0.18-0.11c0.02-0.08-0.03-0.16-0.11-0.18
							C24.55,27.5,24.54,27.5,24.53,27.5z"/>
					</g>
				</g>
			</g>
		</g>
		<g>
			<g>
				<g>
					<g>
						<path class="st1" d="M36.51,26.44c-0.02,0-0.04,0-0.05-0.01c-0.12-0.03-0.2-0.15-0.17-0.27c0.03-0.12,0.16-0.2,0.28-0.17
							c0.12,0.03,0.2,0.15,0.17,0.27C36.7,26.36,36.61,26.44,36.51,26.44z M36.51,26.06c-0.07,0-0.13,0.05-0.14,0.11
							c-0.02,0.08,0.03,0.16,0.11,0.18c0.08,0.02,0.16-0.03,0.18-0.11c0.02-0.08-0.03-0.16-0.11-0.18
							C36.53,26.06,36.52,26.06,36.51,26.06z"/>
					</g>
				</g>
			</g>
		</g>
		<g>
			<g>
				<g>
					<g>
						<path class="st1" d="M35.32,28.37c-0.02,0-0.04,0-0.05-0.01c-0.12-0.03-0.2-0.15-0.17-0.27c0.02-0.1,0.12-0.18,0.22-0.18
							c0.02,0,0.04,0,0.05,0.01c0.12,0.03,0.2,0.15,0.17,0.27C35.52,28.29,35.42,28.37,35.32,28.37z M35.32,27.99
							c-0.07,0-0.13,0.05-0.14,0.11c-0.02,0.08,0.03,0.16,0.11,0.18c0.08,0.02,0.16-0.03,0.18-0.11c0.02-0.08-0.03-0.16-0.11-0.18
							C35.34,27.99,35.33,27.99,35.32,27.99z"/>
					</g>
				</g>
			</g>
		</g>
		<g>
			<g>
				<g>
					<g>
						<g>
							<g>
								<path class="st1" d="M35.82,28.02c-0.12-0.03-0.2-0.15-0.17-0.28c0.03-0.12,0.15-0.2,0.27-0.17
									c0.12,0.03,0.2,0.15,0.17,0.27C36.06,27.97,35.94,28.05,35.82,28.02z M35.9,27.65c-0.08-0.02-0.16,0.03-0.18,0.11
									c-0.02,0.08,0.03,0.16,0.11,0.18c0.08,0.02,0.16-0.03,0.18-0.11C36.03,27.75,35.98,27.67,35.9,27.65z"/>
							</g>
						</g>
					</g>
				</g>
			</g>
		</g>
		<g>
			<g>
				<g>
					<g>
						<g>
							<g>
								<g>
									<path class="st1" d="M30.11,32.42c-0.12-0.03-0.2-0.15-0.17-0.28c0.03-0.12,0.15-0.2,0.27-0.17
										c0.12,0.03,0.2,0.15,0.17,0.27C30.36,32.37,30.23,32.45,30.11,32.42z M30.2,32.05c-0.08-0.02-0.16,0.03-0.18,0.11
										c-0.02,0.08,0.03,0.16,0.11,0.18c0.08,0.02,0.16-0.03,0.18-0.11C30.32,32.15,30.28,32.07,30.2,32.05z"/>
								</g>
							</g>
						</g>
					</g>
				</g>
			</g>
		</g>
	</g>
	<g class="st4">
		<g>
			<g>
				<path class="st3" d="M22.8,31.71c0-4.95,4.03-8.98,8.98-8.98c3.32,0,6.23,1.82,7.78,4.51C38.2,24,35,21.71,31.27,21.71
					c-4.95,0-8.98,4.03-8.98,8.98c0,1.62,0.44,3.15,1.2,4.46C23.05,34.09,22.8,32.93,22.8,31.71z"/>
			</g>
		</g>
	</g>
	<path class="st5" d="M49.63,30.69c0-10.14-8.22-18.36-18.36-18.36v36.72C41.41,49.05,49.63,40.83,49.63,30.69z"/>
</g>
</svg>
