<?xml version="1.0" encoding="utf-8"?>
<!-- Generator: Adobe Illustrator 23.1.0, SVG Export Plug-In . SVG Version: 6.00 Build 0)  -->
<svg version="1.1" id="Layer_1" xmlns="http://www.w3.org/2000/svg" xmlns:xlink="http://www.w3.org/1999/xlink" x="0px" y="0px"
	 viewBox="0 0 60 60" style="enable-background:new 0 0 60 60;" xml:space="preserve">
<style type="text/css">
	.st0{fill-rule:evenodd;clip-rule:evenodd;fill:#0C6F90;}
	.st1{fill-rule:evenodd;clip-rule:evenodd;fill:#FFFFFF;}
</style>
<rect y="0" class="st0" width="60" height="60"/>
<path class="st1" d="M28.87,22.46c0-0.51-0.39-0.9-0.9-0.9c-0.51,0-0.96,0.39-0.96,0.9c0,0.51-0.39,0.96-0.9,0.96
	c-0.51,0-0.96-0.45-0.96-0.96c0-0.51-0.39-0.9-0.9-0.9c-0.51,0-0.9,0.39-0.9,0.9c0,1.52,1.24,2.76,2.76,2.76
	C27.64,25.22,28.87,23.98,28.87,22.46L28.87,22.46z"/>
<path class="st1" d="M33.83,21.56c-1.01,0-1.8,0.84-1.8,1.86c0,1.01,0.79,1.8,1.8,1.8c1.01,0,1.86-0.79,1.86-1.8
	C35.69,22.4,34.84,21.56,33.83,21.56L33.83,21.56z"/>
<path class="st1" d="M38.61,29.55c-0.84,4.05-4.45,7.03-8.67,7.03c-4.11,0-7.6-2.81-8.56-6.81c-0.11-0.45-0.62-0.79-1.13-0.68
	c-0.51,0.11-0.79,0.62-0.67,1.13c1.13,4.84,5.4,8.22,10.36,8.22c5.07,0,9.46-3.6,10.47-8.56c0.11-0.51-0.23-0.96-0.68-1.07
	C39.23,28.7,38.72,29.04,38.61,29.55L38.61,29.55z"/>
</svg>
