<?xml version="1.0" encoding="utf-8"?>
<!-- Generator: Adobe Illustrator 23.1.0, SVG Export Plug-In . SVG Version: 6.00 Build 0)  -->
<svg version="1.1" id="Layer_1" xmlns="http://www.w3.org/2000/svg" xmlns:xlink="http://www.w3.org/1999/xlink" x="0px" y="0px"
	 viewBox="0 0 60 60" style="enable-background:new 0 0 60 60;" xml:space="preserve">
<style type="text/css">
	.st0{fill:#D6CDB6;}
	.st1{fill:#F1E5CE;}
	.st2{fill:#FFFFFF;}
	.st3{fill:#BD975E;}
	.st4{fill:#F8EDD6;}
	.st5{opacity:0.3;}
	.st6{fill:#3F2C26;}
	.st7{fill:#DAB47B;}
	.st8{fill:#CCC1AB;}
</style>
<g>
	<g>
		<g>
			<g>
				<g>
					<path class="st0" d="M49.33,30c0,10.13-8.21,18.33-18.33,18.33c-10.13,0-18.33-8.21-18.33-18.33
						c0-10.13,8.21-18.33,18.33-18.33C41.13,11.67,49.33,19.87,49.33,30z"/>
				</g>
			</g>
		</g>
		<g>
			<g>
				<g>
					<path class="st1" d="M31,47.32c-9.55,0-17.32-7.77-17.32-17.32c0-9.55,7.77-17.32,17.32-17.32c9.55,0,17.32,7.77,17.32,17.32
						C48.32,39.55,40.55,47.32,31,47.32z"/>
				</g>
			</g>
		</g>
		<g>
			<g>
				<g>
					<g>
						<path class="st1" d="M27.89,45.96c-0.19-0.34-0.54-0.54-0.93-0.58c-1.63-1.52-4.39-6.25-5.18-8.94
							c0.69-0.84,0.78-2.18,0.13-3.33c-0.82-1.44-2.47-2.04-3.68-1.35c-1.22,0.69-1.54,2.42-0.72,3.86
							c0.66,1.16,1.86,1.78,2.94,1.61c1.9,2.06,4.55,6.84,5.01,9.01c-0.16,0.35-0.17,0.75,0.02,1.1c0.34,0.6,1.15,0.78,1.82,0.4
							C27.97,47.35,28.23,46.56,27.89,45.96z"/>
					</g>
				</g>
			</g>
		</g>
		<g>
			<g>
				<g>
					<g>
						<path class="st2" d="M26.87,44.94c-0.19-0.34-0.54-0.54-0.93-0.58c-1.63-1.52-4.39-6.25-5.18-8.94
							c0.69-0.84,0.78-2.18,0.13-3.33c-0.82-1.44-2.47-2.04-3.68-1.35c-1.22,0.69-1.54,2.42-0.72,3.86
							c0.66,1.16,1.86,1.78,2.94,1.61c1.9,2.06,4.55,6.84,5.01,9.01c-0.16,0.35-0.17,0.75,0.02,1.1c0.34,0.6,1.15,0.78,1.82,0.4
							C26.95,46.33,27.21,45.54,26.87,44.94z"/>
					</g>
				</g>
			</g>
		</g>
		<g>
			<g>
				<g>
					<path class="st2" d="M31,39.98c-5.5,0-9.98-4.48-9.98-9.98c0-5.5,4.48-9.98,9.98-9.98s9.98,4.48,9.98,9.98
						C40.98,35.5,36.5,39.98,31,39.98z"/>
				</g>
			</g>
		</g>
		<g>
			<g>
				<g>
					<path class="st1" d="M31.51,40.99c-5.5,0-9.98-4.48-9.98-9.98c0-5.5,4.48-9.98,9.98-9.98c5.5,0,9.98,4.48,9.98,9.98
						C41.49,36.52,37.01,40.99,31.51,40.99z"/>
				</g>
			</g>
		</g>
		<g>
			<g>
				<g>
					<path class="st2" d="M31,39.98c-5.5,0-9.98-4.48-9.98-9.98c0-5.5,4.48-9.98,9.98-9.98s9.98,4.48,9.98,9.98
						C40.98,35.5,36.5,39.98,31,39.98z"/>
				</g>
			</g>
		</g>
		<g>
			<g>
				<g>
					<path class="st3" d="M31,38.96c-4.94,0-8.96-4.02-8.96-8.96c0-4.94,4.02-8.96,8.96-8.96c4.94,0,8.96,4.02,8.96,8.96
						C39.96,34.94,35.94,38.96,31,38.96z"/>
				</g>
			</g>
		</g>
		<g>
			<g>
				<g>
					<path class="st4" d="M31,36.84c-3.77,0-6.84-3.07-6.84-6.84c0-3.77,3.07-6.84,6.84-6.84s6.84,3.07,6.84,6.84
						C37.84,33.77,34.77,36.84,31,36.84z"/>
				</g>
			</g>
		</g>
		<g>
			<g>
				<g>
					<g>
						<path class="st2" d="M43.51,31.4h-2.53c-0.56,0-1.02-0.46-1.02-1.02c0-0.56,0.46-1.02,1.02-1.02h2.53
							c0.56,0,1.02,0.46,1.02,1.02C44.53,30.94,44.07,31.4,43.51,31.4z"/>
					</g>
				</g>
			</g>
		</g>
		<g class="st5">
			<g>
				<g>
					<path class="st6" d="M22.55,31.02c0-4.94,4.02-8.96,8.96-8.96c3.32,0,6.22,1.82,7.77,4.51c-1.35-3.24-4.55-5.52-8.27-5.52
						c-4.94,0-8.96,4.02-8.96,8.96c0,1.62,0.44,3.14,1.2,4.45C22.79,33.39,22.55,32.23,22.55,31.02z"/>
				</g>
			</g>
		</g>
		<path class="st7" d="M35.05,29.62c-0.1-1.43-1.1-2.51-2.46-2.51c-0.59,0-1.22,0.33-1.59,0.85c-0.37-0.52-1-0.85-1.59-0.85
			c-1.36,0-2.36,1.08-2.46,2.51c0,0.04,0,0.08,0,0.12c-0.02,1.17,0.95,2.36,1.95,3.28c1.04,0.96,2.1,1.61,2.1,1.61l0.01,0l0,0l0,0
			l0.01,0c0,0,1.06-0.65,2.1-1.61c1-0.91,1.97-2.1,1.95-3.27C35.06,29.7,35.06,29.66,35.05,29.62z"/>
	</g>
	<path class="st8" d="M49.33,30c0-10.13-8.21-18.33-18.33-18.33v36.67C41.13,48.33,49.33,40.13,49.33,30z"/>
</g>
</svg>
