<?xml version="1.0" encoding="utf-8"?>
<!-- Generator: Adobe Illustrator 23.1.0, SVG Export Plug-In . SVG Version: 6.00 Build 0)  -->
<svg version="1.1" id="Layer_1" xmlns="http://www.w3.org/2000/svg" xmlns:xlink="http://www.w3.org/1999/xlink" x="0px" y="0px"
	 viewBox="0 0 60 60" style="enable-background:new 0 0 60 60;" xml:space="preserve">
<style type="text/css">
	.st0{fill:#3F2C26;}
	.st1{fill:#F0E3D0;}
	.st2{fill:#DFCEAE;}
	.st3{opacity:0.3;fill:#3F2C26;}
</style>
<g>
	<g>
		<path class="st0" d="M10.58,24.29c0.25,8.73,4.33,16.64,10.59,20.41h15.86c6.26-3.77,10.34-11.68,10.59-20.41H10.58z"/>
		<path class="st1" d="M36.7,24.29c-0.27-4.99-7.92-9.51-7.48-8.65c1.07,2.12-6.66,6.7-7.72,8.65H36.7z"/>
		<path class="st2" d="M48.6,19.06H9.59c0,0-0.32,2.89-0.32,4.38c0,10,4.73,18.6,11.54,22.53h16.56
			c6.81-3.92,11.54-12.53,11.54-22.53C48.92,21.95,48.6,19.06,48.6,19.06z M37.03,44.7H21.17c-6.46-3.89-10.62-12.19-10.62-21.25
			c0-0.83,0.11-2.16,0.19-3.11h36.7c0.09,0.95,0.19,2.27,0.19,3.11C47.64,32.51,43.48,40.81,37.03,44.7z"/>
		<path class="st2" d="M48.89,24.47c-0.03,0.86-0.08,1.71-0.18,2.55c2.57,0.24,3.37,0.96,3.37,2.91c0,3.13-3.15,7.76-7.26,8.59
			c-0.58,0.95-1.22,1.84-1.9,2.67c0.21,0.01,0.42,0.03,0.62,0.03c6.43,0,11.09-6.74,11.09-11.29
			C54.64,25.89,52.01,24.78,48.89,24.47z"/>
	</g>
	<path class="st3" d="M48.89,24.47C48.89,24.47,48.89,24.47,48.89,24.47c0.01-0.34,0.03-0.67,0.03-1.02c0-1.5-0.32-4.38-0.32-4.38
		H34.03c-2.26-2.42-5.08-3.95-4.81-3.42c0.17,0.34,0.11,0.75-0.12,1.2v29.13h8.28c2.07-1.19,3.94-2.82,5.56-4.79
		c0.21,0.01,0.42,0.03,0.62,0.03c6.43,0,11.09-6.74,11.09-11.29C54.64,25.89,52.01,24.78,48.89,24.47z M36.7,24.29
		c-0.08-1.39-0.72-2.74-1.61-3.95h12.36c0.09,0.95,0.19,2.27,0.19,3.11c0,0.28-0.02,0.56-0.03,0.84H36.7z M47.61,24.38
		c-0.02,0.49-0.04,0.98-0.08,1.46C47.57,25.36,47.6,24.87,47.61,24.38z M47.5,26.1c-0.04,0.45-0.09,0.9-0.15,1.34
		C47.42,27,47.46,26.55,47.5,26.1z M47.27,27.96c-0.06,0.36-0.11,0.72-0.18,1.07C47.16,28.68,47.22,28.32,47.27,27.96z M44.83,38.52
		C44.83,38.52,44.82,38.53,44.83,38.52c2.22-3.61,3.65-8.01,4-12.81c-0.03,0.44-0.07,0.87-0.12,1.3c2.57,0.24,3.37,0.96,3.37,2.91
		C52.09,33.06,48.93,37.69,44.83,38.52z"/>
</g>
</svg>
