<?xml version="1.0" encoding="utf-8"?>
<!-- Generator: Adobe Illustrator 23.1.0, SVG Export Plug-In . SVG Version: 6.00 Build 0)  -->
<svg version="1.1" id="Layer_1" xmlns="http://www.w3.org/2000/svg" xmlns:xlink="http://www.w3.org/1999/xlink" x="0px" y="0px"
	 viewBox="0 0 60 60" style="enable-background:new 0 0 60 60;" xml:space="preserve">
<style type="text/css">
	.st0{fill:#5C381D;}
	.st1{fill:#F0E3D0;}
	.st2{fill:#CCC1AB;}
	.st3{fill:#634747;}
	.st4{fill:#A77E6B;}
	.st5{opacity:0.2;}
	.st6{opacity:0.3;fill:#E0CAB0;}
	.st7{opacity:0.2;fill:#5A2E2F;}
</style>
<g>
	<g>
		
			<rect x="29.95" y="10.95" transform="matrix(0.3288 -0.9444 0.9444 0.3288 12.9314 41.8203)" class="st0" width="11.87" height="1.72"/>
	</g>
	<path class="st1" d="M38.29,19.61c0.27-0.35,0.42-0.78,0.42-1.26c-0.01-1.12-0.9-2.02-2-2.05c0.02-0.1,0.03-0.21,0.03-0.32
		c0-0.9-0.73-1.64-1.64-1.64c-0.3,0-0.57,0.08-0.81,0.22c0.05-0.16,0.07-0.34,0.07-0.56c0-1.53-3.13-4.85-2.77-3.94
		c0.95,2.38-2.39,2.42-2.74,3.72c-0.11-0.02-0.21-0.03-0.32-0.03c-1.07,0-1.96,0.75-2.17,1.76c-0.15-0.02-0.3-0.03-0.45-0.03
		c-1.61,0.01-2.92,1.32-2.91,2.94c0,0.75,0.29,1.43,0.76,1.94c-0.54,0.5-0.89,1.22-0.88,2.01c0.01,1.5,1.23,2.71,2.73,2.7
		c0.01,0,0.01,0,0.02,0c0,0.05-0.02,0.1-0.01,0.15c0,0.92,0.76,1.67,1.68,1.67c0.92-0.01,1.67-0.76,1.67-1.68c0,0,0-0.01,0-0.01
		c0.09,0.01,0.18,0.01,0.28,0.01c0.09,0,0.17-0.01,0.26-0.01c0.3,0.22,0.63,0.39,0.99,0.49c-0.12,0.29-0.19,0.62-0.19,0.95
		c0.01,1.35,1.11,2.44,2.46,2.44c1.35-0.01,2.45-1.11,2.44-2.46c0-0.94-0.53-1.74-1.31-2.15c0.09-0.13,0.17-0.27,0.24-0.42
		c0.49,0.32,1.07,0.5,1.7,0.5c1.71-0.01,3.09-1.4,3.08-3.11C38.9,20.76,38.67,20.12,38.29,19.61z"/>
	<path class="st2" d="M27.54,51.08h6.21c3.42-3.18,5.86-11.45,5.86-21.16c0-3.61-0.34-7.01-0.94-10.04H22.62
		c-0.6,3.02-0.94,6.43-0.94,10.04C21.68,39.63,24.12,47.9,27.54,51.08z"/>
	<path class="st1" d="M27.82,50.39c-3.27-3.26-5.45-11.42-5.45-20.47c0-3.27,0.28-6.41,0.82-9.35H38.1
		c0.54,2.94,0.82,6.08,0.82,9.35c0,9.05-2.18,17.2-5.45,20.47H27.82z"/>
	<g>
		<g>
			<polygon class="st3" points="32.84,12.61 32.63,14.65 34.08,14.8 34.39,12.34 			"/>
		</g>
		<g>
			<polygon class="st3" points="35.78,16.57 35.56,18.6 37.02,18.76 37.32,16.3 			"/>
		</g>
		<g>
			<polygon class="st3" points="28.63,13.84 29.93,14.77 30.59,13.84 29.04,12.69 			"/>
		</g>
		<g>
			<polygon class="st3" points="28.07,21.74 29.07,22.02 29.35,21.01 27.88,20.6 			"/>
		</g>
		<g>
			<polygon class="st3" points="27.8,18.81 28.81,19.09 29.09,18.08 27.62,17.67 			"/>
		</g>
		<g>
			<polygon class="st3" points="31.15,17.25 32.16,17.53 32.44,16.53 30.96,16.12 			"/>
		</g>
		<g>
			<polygon class="st3" points="31.14,19.19 30.89,18.82 30.52,19.07 30.89,19.61 			"/>
		</g>
		<g>
			<polygon class="st3" points="25.75,19.04 25.68,18.57 25.31,18.38 25.15,19.19 			"/>
		</g>
		<g>
			<polygon class="st3" points="25.75,21.57 25.68,21.09 25.31,20.91 25.15,21.71 			"/>
		</g>
		<g>
			<polygon class="st3" points="31.17,21.67 31.59,21.44 31.63,21.02 30.82,21.16 			"/>
		</g>
		<g>
			<polygon class="st3" points="35.27,21.49 35.73,21.61 36.05,21.34 35.37,20.88 			"/>
		</g>
		<g>
			<polygon class="st3" points="33.47,19.12 33.88,18.88 33.91,18.46 33.1,18.62 			"/>
		</g>
		<g>
			<polygon class="st3" points="29.57,17.22 29.98,16.98 30.01,16.56 29.21,16.72 			"/>
		</g>
		<g>
			<polygon class="st3" points="31.77,14.66 31.99,15.08 32.41,15.13 32.29,14.32 			"/>
		</g>
		<g>
			<polygon class="st3" points="24.5,17.92 24.39,17.18 23.81,16.89 23.57,18.14 			"/>
		</g>
		<g>
			<polygon class="st3" points="33.75,20.62 32.79,21.08 32.64,22 34.46,21.8 			"/>
		</g>
		<g>
			<polygon class="st3" points="27.31,15.43 26.36,15.89 26.21,16.8 28.02,16.61 			"/>
		</g>
	</g>
	<path class="st4" d="M22.37,29.92c0,8.47,1.91,16.16,4.84,19.78h6.88c2.93-3.62,4.84-11.32,4.84-19.78c0-2.67-0.19-5.26-0.55-7.72
		H22.92C22.55,24.66,22.37,27.25,22.37,29.92z"/>
	<g class="st5">
		<path class="st6" d="M22.48,26.5h16.33c-0.01-0.23-0.03-0.46-0.04-0.68H22.52C22.5,26.04,22.49,26.27,22.48,26.5z"/>
		<path class="st6" d="M38.86,32.38H22.43c0,0.07,0.01,0.14,0.01,0.2h16.42C38.86,32.51,38.86,32.45,38.86,32.38z"/>
		<path class="st6" d="M38.71,34.71H22.57c0.05,0.55,0.11,1.1,0.17,1.63h15.8C38.61,35.8,38.67,35.26,38.71,34.71z"/>
		<path class="st6" d="M38.92,29.92c0-0.18-0.01-0.35-0.01-0.53H22.37c0,0.18-0.01,0.35-0.01,0.53c0,0.18,0.01,0.36,0.01,0.54h16.54
			C38.92,30.28,38.92,30.1,38.92,29.92z"/>
		<path class="st6" d="M22.4,31.89h16.48c0-0.06,0.01-0.13,0.01-0.19H22.4C22.4,31.76,22.4,31.82,22.4,31.89z"/>
		<path class="st6" d="M23.45,40.59c0.12,0.56,0.25,1.1,0.39,1.63h13.6c0.14-0.53,0.27-1.07,0.39-1.63H23.45z"/>
		<path class="st6" d="M38.43,37.23H22.86c0.06,0.42,0.12,0.82,0.19,1.23h15.19C38.31,38.05,38.37,37.65,38.43,37.23z"/>
		<path class="st6" d="M24.09,43.11c0.1,0.35,0.21,0.69,0.31,1.02h12.48c0.11-0.33,0.21-0.67,0.31-1.02H24.09z"/>
		<path class="st6" d="M23.4,40.38h14.48c0.04-0.19,0.08-0.4,0.12-0.6H23.29C23.33,39.98,23.36,40.19,23.4,40.38z"/>
		<path class="st6" d="M36.32,45.66H24.97c0.08,0.2,0.16,0.4,0.24,0.6h10.87C36.16,46.07,36.24,45.86,36.32,45.66z"/>
	</g>
	<path class="st7" d="M34.25,13.45l0.14-1.11l-0.61,0.11c-0.89-1.49-2.45-3.04-2.18-2.38c0.44,1.09-0.03,1.69-0.7,2.14v38.86h2.86
		c3.42-3.18,5.86-11.45,5.86-21.16c0-3.61-0.34-7.01-0.94-10.04h-0.21c-0.06-0.09-0.11-0.19-0.18-0.28
		c0.27-0.35,0.42-0.78,0.42-1.26c0-0.9-0.59-1.66-1.4-1.93l0.01-0.12l-0.25,0.04c-0.12-0.02-0.24-0.04-0.37-0.05
		c0.02-0.1,0.03-0.21,0.03-0.32c0-0.63-0.36-1.17-0.88-1.45l2.8-8.05l-1.62-0.56l-2.7,7.77C34.31,13.62,34.28,13.54,34.25,13.45z"/>
</g>
</svg>
