<?xml version="1.0" encoding="utf-8"?>
<!-- Generator: Adobe Illustrator 23.1.0, SVG Export Plug-In . SVG Version: 6.00 Build 0)  -->
<svg version="1.1" id="Layer_1" xmlns="http://www.w3.org/2000/svg" xmlns:xlink="http://www.w3.org/1999/xlink" x="0px" y="0px"
	 viewBox="0 0 60 30" style="enable-background:new 0 0 60 30;" xml:space="preserve">
<style type="text/css">
	.st0{fill:#D2D4D6;}
	.st1{font-family:'ArialMT';}
	.st2{font-size:6.849px;}
	.st3{fill-rule:evenodd;clip-rule:evenodd;fill:#D2D4D6;}
	.st4{fill:none;stroke:#D2D4D6;stroke-width:2;stroke-miterlimit:10;}
	.st5{fill:none;stroke:#D2D4D6;stroke-miterlimit:10;stroke-dasharray:1,5;}
	.st6{fill:none;stroke:#D2D4D6;stroke-miterlimit:10;stroke-dasharray:0.9897,4.9486;}
</style>
<g>
	<g>
		<text transform="matrix(1 0 0 1 10.5926 23.9568)" class="st0 st1 st2">Geniune Cafè</text>
	</g>
	<path class="st3" d="M34.1,10.29h-0.15c0.05-0.37,0.01-0.6-0.17-0.6h-4.34h-4.34c-0.97,0,1.9,6.11,2.43,6.73
		c0.07,0.08,0.14,0.15,0.2,0.21h1.7h1.7c0.06-0.05,0.13-0.13,0.2-0.21c0.2-0.23,0.73-1.24,1.26-2.4c0.11,0,0.23,0,0.36,0
		c2.14,0,2.17-2.52,2.17-2.52C35.14,10.18,34.1,10.29,34.1,10.29z M32.97,13.2c0.3-0.71,0.58-1.42,0.77-2.02
		c0.16,0.06,0.35,0.22,0.35,0.63C34.09,11.8,34.07,13.12,32.97,13.2z"/>
	<polygon class="st3" points="40.87,7.77 40.64,8.95 41.48,9.82 40.29,9.96 39.72,11.03 39.21,9.94 38.03,9.74 38.91,8.92 
		38.74,7.71 39.79,8.31 	"/>
	<polygon class="st3" points="35.61,4.56 35.82,5.92 37.05,6.51 35.83,7.13 35.65,8.48 34.69,7.51 33.34,7.76 33.96,6.54 
		33.31,5.34 34.66,5.56 	"/>
	<polygon class="st3" points="29.46,3.45 30.18,4.75 31.65,4.9 30.64,5.98 30.95,7.43 29.61,6.8 28.33,7.55 28.52,6.08 27.41,5.1 
		28.87,4.82 	"/>
	<polygon class="st3" points="23.38,4.85 24.41,5.75 25.74,5.41 25.2,6.67 25.93,7.82 24.57,7.71 23.69,8.76 23.39,7.42 22.12,6.91 
		23.29,6.21 	"/>
	<polygon class="st3" points="18.28,8.27 19.4,8.7 20.4,8.02 20.33,9.23 21.29,9.96 20.12,10.27 19.72,11.4 19.07,10.39 
		17.86,10.36 18.62,9.43 	"/>
	<g>
		<path class="st3" d="M39.14,14.08c1.57,0.33,2.15,2.27,3.83,2.32c1.69,0.05,2.63-1.73,1.94-3.17c-0.4-0.84-1.53-1.39-2.32-0.75
			c-0.53,0.43-0.38,1.23,0.26,1.46c0.58,0.21,0.9-0.59,0.64-0.99c-0.03-0.05,0.04-0.09,0.07-0.05c0.38,0.39,0.15,1.01-0.32,1.21
			c-0.62,0.27-1.15-0.46-1.16-0.99c-0.01-0.77,0.87-1.15,1.5-1.09c0.77,0.07,1.34,0.71,1.62,1.38c0.65,1.58-0.6,3.12-2.2,3.16
			c-0.96,0.03-1.66-0.66-2.28-1.3c-0.49-0.5-1.01-0.97-1.73-1.06c-0.77-0.1-1.43,0.59-1.15,1.35c0.01,0.04-0.04,0.05-0.05,0.03
			C37.21,14.7,38.31,13.91,39.14,14.08z"/>
		<path class="st3" d="M21.08,14.08c-1.57,0.33-2.15,2.27-3.83,2.32c-1.69,0.05-2.63-1.73-1.94-3.17c0.4-0.84,1.53-1.39,2.32-0.75
			c0.53,0.43,0.38,1.23-0.26,1.46c-0.58,0.21-0.9-0.59-0.64-0.99c0.03-0.05-0.04-0.09-0.07-0.05c-0.38,0.39-0.15,1.01,0.32,1.21
			c0.62,0.27,1.15-0.46,1.16-0.99c0.01-0.77-0.87-1.15-1.5-1.09c-0.77,0.07-1.34,0.71-1.62,1.38c-0.65,1.58,0.6,3.12,2.2,3.16
			c0.96,0.03,1.66-0.66,2.28-1.3c0.49-0.5,1.01-0.97,1.73-1.06c0.77-0.1,1.43,0.59,1.15,1.35c-0.01,0.04,0.04,0.05,0.05,0.03
			C23.01,14.7,21.91,13.91,21.08,14.08z"/>
	</g>
	<path class="st4" d="M10.73,17.94c1.71-9.1,9.7-15.99,19.29-15.99c9.49,0,17.41,6.73,19.24,15.68"/>
	<path class="st5" d="M11.67,18.05c1.63-8.6,9.23-15.1,18.35-15.1c9.03,0,16.56,6.36,18.3,14.81"/>
	<path class="st4" d="M50.44,27.81H9.56c-0.76,0-1.38-0.62-1.38-1.38v-7.21c0-0.76,0.62-1.38,1.38-1.38h40.89
		c0.76,0,1.38,0.62,1.38,1.38v7.21C51.82,27.19,51.2,27.81,50.44,27.81z"/>
	<g>
		<path class="st6" d="M49.5,26.87h-39c-0.76,0-1.38-0.62-1.38-1.38v-5.34c0-0.76,0.62-1.38,1.38-1.38h39.01
			c0.76,0,1.38,0.62,1.38,1.38v5.34C50.88,26.24,50.26,26.87,49.5,26.87z"/>
	</g>
</g>
</svg>
