<?xml version="1.0" encoding="utf-8"?>
<!-- Generator: Adobe Illustrator 23.1.0, SVG Export Plug-In . SVG Version: 6.00 Build 0)  -->
<svg version="1.1" id="Layer_1" xmlns="http://www.w3.org/2000/svg" xmlns:xlink="http://www.w3.org/1999/xlink" x="0px" y="0px"
	 viewBox="0 0 60 60" style="enable-background:new 0 0 60 60;" xml:space="preserve">
<style type="text/css">
	.st0{fill:#F0E3D0;}
	.st1{fill:#451E09;}
	.st2{fill:#CFC9BE;}
	.st3{fill:#3F2C26;}
	.st4{fill:#AA8B6E;}
	.st5{fill:#512B18;}
</style>
<g>
	<g>
		<path class="st0" d="M38.45,8.88c0-0.03,0.01-0.05,0.01-0.08c0-1.84-2-3.34-4.48-3.34c-0.98,0-1.88,0.24-2.61,0.63
			c-0.36-0.07-0.73-0.11-1.12-0.11c-1.72,0-3.22,0.73-3.96,1.79c-1.94,0.37-3.38,1.67-3.38,3.23c0,1.84,2,3.34,4.47,3.34
			c1.62,0,3.03-0.64,3.81-1.6c0.79,0.96,2.2,1.6,3.81,1.6c2.47,0,4.48-1.5,4.48-3.34C39.48,10.2,39.09,9.45,38.45,8.88z"/>
		<g>
			<path class="st1" d="M27.92,8.13c-0.68,0.16-0.44,1.21,0.24,1.05C28.84,9.02,28.6,7.97,27.92,8.13z"/>
			<path class="st1" d="M29.59,8.13c-0.03,0.01-0.06,0.01-0.08,0.02c-0.22,0.04-0.17,0.38,0.05,0.34c0.03,0,0.06-0.01,0.08-0.02
				C29.85,8.42,29.8,8.09,29.59,8.13z"/>
			<path class="st1" d="M30.75,8.5c-0.2,0.05-0.29,0.17-0.27,0.38c0.03,0.23,0.27,0.25,0.41,0.14C31.2,8.91,31.08,8.42,30.75,8.5z"
				/>
			<path class="st1" d="M31.77,8.07c-0.2,0.28,0.24,0.6,0.44,0.31C32.41,8.09,31.97,7.78,31.77,8.07z"/>
			<path class="st1" d="M30.78,7.47C30.45,7.55,30.56,8.08,30.9,8C31.24,7.92,31.12,7.4,30.78,7.47z"/>
			<path class="st1" d="M33.59,7.02l0.02,0.07c0.08,0.34,0.6,0.22,0.53-0.12L34.11,6.9C34.04,6.56,33.51,6.68,33.59,7.02z"/>
			<path class="st1" d="M35.6,7.48l-0.04,0.01c-0.34,0.08-0.22,0.6,0.12,0.53l0.04-0.01C36.06,7.93,35.94,7.4,35.6,7.48z"/>
			<path class="st1" d="M26.18,9.5c-0.14,0.32,0.36,0.53,0.5,0.21C26.82,9.4,26.32,9.18,26.18,9.5z"/>
			<path class="st1" d="M27.17,7.9c-0.25-0.24-0.63,0.14-0.38,0.38C27.04,8.53,27.42,8.14,27.17,7.9z"/>
			<path class="st1" d="M28.44,7.37L28.4,7.38c-0.34,0.08-0.22,0.6,0.12,0.53l0.04-0.01C28.9,7.82,28.78,7.29,28.44,7.37z"/>
			<path class="st1" d="M29.39,8.82l-0.05,0.01c-0.49,0.11-0.31,0.87,0.17,0.76l0.05-0.01C30.05,9.46,29.87,8.71,29.39,8.82z"/>
			<path class="st1" d="M31.15,6.76c-0.21-0.28-0.64,0.04-0.44,0.32C30.92,7.36,31.36,7.04,31.15,6.76z"/>
			<path class="st1" d="M30.65,8.21l-0.04,0.01c-0.68,0.16-0.44,1.21,0.24,1.05l0.04-0.01C31.57,9.11,31.33,8.06,30.65,8.21z"/>
			<path class="st1" d="M29.45,6.7l-0.04,0.01c-0.68,0.15-0.44,1.21,0.24,1.05l0.04-0.01C30.37,7.6,30.13,6.55,29.45,6.7z"/>
			<path class="st1" d="M31.57,7.02l0.01,0.04c0.16,0.68,1.21,0.44,1.05-0.24l-0.01-0.04C32.46,6.1,31.41,6.34,31.57,7.02z"/>
			<path class="st1" d="M33.46,7.46l-0.07,0.02c-0.68,0.15-0.44,1.21,0.24,1.05l0.07-0.02C34.38,8.35,34.14,7.3,33.46,7.46z"/>
			<path class="st1" d="M35.26,6.19l-0.07,0.02c-0.68,0.15-0.44,1.21,0.24,1.05l0.07-0.02C36.18,7.09,35.94,6.04,35.26,6.19z"/>
			<path class="st1" d="M25.01,9.04l0.01,0.04c0.16,0.68,1.21,0.44,1.05-0.24L26.06,8.8C25.91,8.12,24.86,8.36,25.01,9.04z"/>
		</g>
		<path class="st2" d="M37.6,51.89c-1.25-1.96-3.71-3.29-6.53-3.29c-2.82,0-5.28,1.33-6.53,3.29H37.6z"/>
		<path class="st2" d="M38.11,51.76H24.02c-0.89,0-1.62,0.51-1.62,1.14h17.33C39.73,52.27,39,51.76,38.11,51.76z"/>
		<path class="st2" d="M40.39,11h-8.84h-0.33h-0.3h-0.33h-8.84c-0.12,2.64-0.19,5.39-0.19,8.22c0,18.85,0.28,9.87,4.36,31.07h4.66
			h0.33h0.3h0.33h4.66c4.08-21.2,4.36-12.22,4.36-31.07C40.57,16.39,40.51,13.64,40.39,11z"/>
		<path class="st3" d="M27.06,49.15h8.01c0.63-3.21,1.16-5.7,1.62-7.68H25.44C25.9,43.46,26.43,45.94,27.06,49.15z"/>
		<path class="st0" d="M39.23,19.22c0-2.38-0.05-4.76-0.14-7.08H23.04c-0.09,2.32-0.14,4.7-0.14,7.08c0,0.35,0,0.7,0,1.03h16.33
			C39.23,19.91,39.23,19.57,39.23,19.22z"/>
		<path class="st4" d="M38.92,31.72H23.21c0.19,1.59,0.5,2.79,1,4.71c0.32,1.26,0.73,2.84,1.24,5.05h11.24
			c0.51-2.21,0.92-3.79,1.24-5.05C38.42,34.5,38.73,33.31,38.92,31.72z"/>
		<path class="st5" d="M38.92,31.72c0.26-2.16,0.3-5.05,0.31-11.47H22.9c0,6.42,0.05,9.31,0.31,11.47H38.92z"/>
	</g>
	<path class="st2" d="M40.57,19.22c0-2.82-0.06-5.57-0.18-8.22h-0.91c0-0.81-0.39-1.55-1.03-2.12c0-0.03,0.01-0.05,0.01-0.08
		c0-1.84-2-3.34-4.48-3.34c-0.9,0-1.73,0.21-2.43,0.55V52.9h8.18c0-0.63-0.73-1.14-1.62-1.14h-0.6c-0.37-0.55-0.83-1.04-1.37-1.47
		h0.08C40.29,29.09,40.57,38.07,40.57,19.22z"/>
</g>
</svg>
