<?xml version="1.0" encoding="utf-8"?>
<!-- Generator: Adobe Illustrator 23.1.0, SVG Export Plug-In . SVG Version: 6.00 Build 0)  -->
<svg version="1.1" id="Layer_1" xmlns="http://www.w3.org/2000/svg" xmlns:xlink="http://www.w3.org/1999/xlink" x="0px" y="0px"
	 viewBox="0 0 60 60" style="enable-background:new 0 0 60 60;" xml:space="preserve">
<style type="text/css">
	.st0{fill-rule:evenodd;clip-rule:evenodd;fill:#FFCA05;}
	.st1{fill-rule:evenodd;clip-rule:evenodd;fill:#FFFFFF;}
</style>
<rect x="0" class="st0" width="60" height="60"/>
<path class="st1" d="M28.82,24.93c0-3.49-5.29-3.49-5.29,0c0,1.13,1.74,1.13,1.74,0c0-1.18,1.75-1.18,1.75,0
	C27.02,26.06,28.82,26.06,28.82,24.93L28.82,24.93z"/>
<path class="st1" d="M36.47,24.93c0-3.49-5.29-3.49-5.29,0c0,1.13,1.75,1.13,1.75,0c0-1.18,1.8-1.18,1.8,0
	C34.73,26.06,36.47,26.06,36.47,24.93L36.47,24.93z"/>
<path class="st1" d="M38.28,36.98c-1.8-8.84-14.47-9.06-16.55-0.28c-0.28,1.13-2.03,0.73-1.75-0.39
	c2.53-10.64,17.84-10.36,20.04,0.28c0.11,0.51-0.22,0.96-0.68,1.07C38.84,37.77,38.39,37.43,38.28,36.98L38.28,36.98z"/>
</svg>
