<?xml version="1.0" encoding="utf-8"?>
<!-- Generator: Adobe Illustrator 23.1.0, SVG Export Plug-In . SVG Version: 6.00 Build 0)  -->
<svg version="1.1" id="Layer_1" xmlns="http://www.w3.org/2000/svg" xmlns:xlink="http://www.w3.org/1999/xlink" x="0px" y="0px"
	 viewBox="0 0 60 60" style="enable-background:new 0 0 60 60;" xml:space="preserve">
<style type="text/css">
	.st0{fill-rule:evenodd;clip-rule:evenodd;fill:#F05F24;}
	.st1{fill-rule:evenodd;clip-rule:evenodd;fill:#FFFFFF;}
</style>
<rect x="-0.03" class="st0" width="60.06" height="60"/>
<path class="st1" d="M19.56,30.17c1.18,4.84,5.46,8.22,10.41,8.22c5.07,0,9.45-3.6,10.47-8.56c0.06-0.45-0.23-0.96-0.73-1.07
	c-0.51-0.11-1.01,0.22-1.07,0.73c-0.84,4.11-4.5,7.04-8.67,7.04c-4.11,0-7.65-2.76-8.61-6.75c-0.11-0.51-0.62-0.84-1.13-0.68
	C19.78,29.21,19.45,29.66,19.56,30.17L19.56,30.17z"/>
<path class="st1" d="M24.17,23.41c0,1.01,0.84,1.86,1.86,1.86c1.01,0,1.86-0.84,1.86-1.86s-0.84-1.8-1.86-1.8
	C25.02,21.61,24.17,22.4,24.17,23.41L24.17,23.41z"/>
<path class="st1" d="M33.69,21.61c-1.01,0-1.86,0.79-1.86,1.8s0.84,1.86,1.86,1.86c1.01,0,1.86-0.84,1.86-1.86
	S34.7,21.61,33.69,21.61L33.69,21.61z"/>
</svg>
